<svg width="560" height="426" viewBox="0 0 560 426" fill="none" xmlns="http://www.w3.org/2000/svg">
<path d="M451.063 0.256104H0.192871V289.564H451.063V0.256104Z" fill="#E6E6E6"/>
<path d="M438.17 36.5425H13.085V272.449H438.17V36.5425Z" fill="white"/>
<path d="M450.87 0H0V19.1912H450.87V0Z" fill="#D94141"/>
<path d="M14.2342 13.3684C16.1949 13.3684 17.7844 11.776 17.7844 9.81151C17.7844 7.84707 16.1949 6.25458 14.2342 6.25458C12.2735 6.25458 10.6841 7.84707 10.6841 9.81151C10.6841 11.776 12.2735 13.3684 14.2342 13.3684Z" fill="white"/>
<path d="M27.7098 13.3684C29.6705 13.3684 31.26 11.776 31.26 9.81151C31.26 7.84707 29.6705 6.25458 27.7098 6.25458C25.7491 6.25458 24.1597 7.84707 24.1597 9.81151C24.1597 11.776 25.7491 13.3684 27.7098 13.3684Z" fill="white"/>
<path d="M41.1852 13.3684C43.1459 13.3684 44.7353 11.776 44.7353 9.81151C44.7353 7.84707 43.1459 6.25458 41.1852 6.25458C39.2245 6.25458 37.635 7.84707 37.635 9.81151C37.635 11.776 39.2245 13.3684 41.1852 13.3684Z" fill="white"/>
<path d="M160.937 61.0197H51.71V247.972H160.937V61.0197Z" fill="#E6E6E6"/>
<path d="M270.814 61.0197H179.792V112.48H270.814V61.0197Z" fill="#D94141"/>
<path d="M270.814 126.811H179.792V182.18H270.814V126.811Z" fill="#E6E6E6"/>
<path d="M270.814 196.511H179.792V247.972H270.814V196.511Z" fill="#E6E6E6"/>
<path d="M399.546 61.0197H290.319V142.492H399.546V61.0197Z" fill="#E6E6E6"/>
<path d="M399.546 166.499H290.319V247.972H399.546V166.499Z" fill="#D94141"/>
<path d="M515.839 145.005C508.634 132.702 494.379 132.129 494.379 132.129C494.379 132.129 480.489 130.334 471.579 149.071C463.274 166.536 451.811 183.399 469.733 187.487L472.971 177.305L474.976 188.245C477.527 188.431 480.087 188.475 482.644 188.378C501.837 187.751 520.115 188.561 519.527 181.601C518.745 172.348 522.771 156.843 515.839 145.005Z" fill="#2F2E41"/>
<path d="M447.514 210.693L441.212 226.83L409.7 256.297C409.7 256.297 390.793 270.329 399.196 274.538C407.599 278.748 415.302 259.103 415.302 259.103L448.914 238.757L455.917 215.604L447.514 210.693Z" fill="#FFB8B8"/>
<path d="M458.018 389.6L464.32 405.737H473.423L465.72 386.794L458.018 389.6Z" fill="#FFB8B8"/>
<path d="M485.328 396.616L491.63 412.753H500.733L493.031 393.81L485.328 396.616Z" fill="#FFB8B8"/>
<path d="M484.628 399.422L496.532 396.616L481.126 334.174L486.241 286.128L486.378 286.115C486.378 286.115 495.132 252.087 488.129 242.966C481.126 233.846 446.113 237.354 446.113 237.354C446.113 237.354 432.808 250.684 433.509 280.853C434.209 311.021 433.509 336.98 438.41 348.907C443.312 360.834 457.317 392.406 457.317 392.406L468.522 391.003L456.617 339.085L454.714 293.953C456.229 312.039 459.278 346.334 460.819 348.907C462.92 352.415 484.628 399.422 484.628 399.422Z" fill="#2F2E41"/>
<path d="M520.341 225.427L525.243 242.967L546.951 282.256C546.951 282.256 565.858 299.094 558.155 301.199C550.452 303.304 538.548 285.764 538.548 285.764L514.039 251.386L507.736 226.128L520.341 225.427Z" fill="#FFB8B8"/>
<path d="M495.131 175.613C504.8 175.613 512.638 167.76 512.638 158.073C512.638 148.386 504.8 140.534 495.131 140.534C485.463 140.534 477.625 148.386 477.625 158.073C477.625 167.76 485.463 175.613 495.131 175.613Z" fill="#FFB8B8"/>
<path d="M486.028 167.194L481.827 180.524L474.824 195.96L500.734 185.436C500.734 185.436 499.333 174.21 500.734 171.404L486.028 167.194Z" fill="#FFB8B8"/>
<path d="M516.139 195.258L500.033 181.928L481.827 189.645L482.54 178.261L463.114 184.477L460.118 185.436L455.917 207.185C455.917 207.185 453.116 209.29 450.315 221.217C448.698 228.226 446.351 235.045 443.312 241.563C443.312 241.563 473.423 229.636 488.129 245.773C488.129 245.773 490.23 244.37 489.529 242.265C488.829 240.16 495.832 229.636 495.832 229.636C495.832 229.636 495.832 231.741 498.633 227.531C501.434 223.322 503.535 222.62 503.535 222.62L516.139 195.258Z" fill="#D94141"/>
<path d="M464.32 187.54L461.262 185.07C461.262 185.07 458.718 184.032 456.617 187.54C454.517 191.048 444.013 212.798 444.013 212.798L456.617 219.112L464.32 187.54Z" fill="#D94141"/>
<path d="M506.336 194.556L516.139 195.258C516.139 195.258 521.741 198.064 521.741 202.274C521.741 206.484 523.142 228.935 523.142 228.935L507.736 233.846L501.434 214.201L506.336 194.556Z" fill="#D94141"/>
<path d="M462.297 403.281L450.392 408.192C450.392 408.192 436.387 408.894 438.488 415.91C440.588 422.926 461.596 418.015 461.596 418.015C461.596 418.015 480.503 418.716 480.503 413.805C480.503 408.894 477.702 403.281 474.901 403.281H462.297Z" fill="#2F2E41"/>
<path d="M488.906 409.595L477.002 414.507C477.002 414.507 462.997 415.208 465.098 422.224C467.198 429.24 488.206 424.329 488.206 424.329C488.206 424.329 507.113 425.03 507.113 420.119C507.113 415.208 504.312 409.595 501.511 409.595H488.906Z" fill="#2F2E41"/>
<path d="M512.653 143.819L498.57 136.364L479.123 139.414L475.1 157.373L485.115 156.984L487.914 150.386V156.875L492.535 156.696L495.217 146.191L496.894 157.373L513.324 157.034L512.653 143.819Z" fill="#2F2E41"/>
<path d="M418.461 58.6157C404.453 46.773 387.312 39.2649 369.122 37.005C350.933 34.7451 332.48 37.8308 316.009 45.8867C299.538 53.9426 285.76 66.6213 276.35 82.38C266.94 98.1387 262.304 116.298 263.007 134.648C263.71 152.998 269.722 170.748 280.31 185.737C290.898 200.727 305.607 212.31 322.645 219.077C339.684 225.844 358.319 227.503 376.282 223.853C394.245 220.202 410.761 211.4 423.822 198.516L539.797 296.562C540.672 297.302 541.683 297.861 542.773 298.209C543.864 298.557 545.012 298.686 546.152 298.59C547.292 298.493 548.402 298.172 549.419 297.646C550.435 297.119 551.338 296.397 552.076 295.521C552.814 294.645 553.372 293.631 553.72 292.539C554.067 291.446 554.195 290.296 554.099 289.154C554.002 288.012 553.682 286.899 553.156 285.881C552.63 284.863 551.91 283.958 551.035 283.219L435.059 185.173C448.532 165.799 454.298 142.084 451.228 118.673C448.158 95.2622 436.472 73.844 418.461 58.6157ZM410.985 175.731C401.95 186.459 389.942 194.262 376.481 198.153C363.02 202.044 348.71 201.848 335.359 197.59C322.009 193.333 310.219 185.204 301.48 174.233C292.741 163.262 287.445 149.94 286.262 135.954C285.08 121.967 288.063 107.943 294.836 95.6548C301.608 83.3669 311.865 73.3671 324.31 66.9198C336.755 60.4725 350.829 57.8675 364.751 59.434C378.674 61.0005 391.82 66.6682 402.528 75.7205C416.886 87.8592 425.844 105.215 427.43 123.971C429.016 142.727 423.1 161.346 410.985 175.731Z" fill="#3F3D56"/>
<path opacity="0.3" d="M311.164 184.204C297.575 172.715 288.795 156.525 286.569 138.85C284.342 121.175 288.831 103.308 299.144 88.7951C297.79 90.1617 296.48 91.5929 295.216 93.0888C289.216 100.212 284.675 108.449 281.853 117.33C279.031 126.212 277.982 135.563 278.767 144.85C279.552 154.138 282.155 163.179 286.428 171.459C290.701 179.738 296.559 187.093 303.669 193.104C310.779 199.114 319.001 203.663 327.866 206.49C336.73 209.317 346.064 210.367 355.334 209.58C364.603 208.793 373.627 206.184 381.891 201.903C390.154 197.621 397.494 191.751 403.493 184.627C404.755 183.129 405.943 181.595 407.057 180.025C394.514 192.652 377.689 200.092 359.925 200.866C342.16 201.64 324.755 195.693 311.164 184.204Z" fill="black"/>
<path d="M525.302 120C530.455 120 534 122.925 534 127.13C534 129.914 532.681 131.841 530.139 133.373C527.748 134.794 526.937 135.834 526.937 137.634C526.937 137.78 526.909 137.925 526.855 138.06C526.8 138.194 526.72 138.317 526.619 138.42C526.518 138.523 526.399 138.605 526.267 138.661C526.135 138.717 525.994 138.745 525.852 138.745H523.217C522.936 138.745 522.666 138.634 522.463 138.433C522.261 138.233 522.142 137.961 522.133 137.673L522.128 137.536C521.894 134.639 522.884 132.839 525.371 131.348C527.693 129.928 528.669 129.028 528.669 127.284C528.669 125.541 527.02 124.261 524.972 124.261C523.416 124.261 522.185 125.036 521.62 126.302C521.421 126.73 521.107 127.091 520.714 127.343C520.321 127.594 519.866 127.725 519.403 127.72C517.618 127.72 516.439 125.778 517.274 124.163C518.594 121.609 521.38 120 525.302 120ZM521.688 144.103C521.688 142.486 523.007 141.206 524.629 141.206C526.264 141.206 527.583 142.472 527.583 144.103C527.583 145.734 526.264 147 524.629 147C522.993 147 521.688 145.734 521.688 144.103Z" fill="#D94141"/>
</svg>
