<svg width="105" height="36" viewBox="0 0 105 36" fill="none" xmlns="http://www.w3.org/2000/svg">
<path d="M16.3839 0C11.0018 0 6.89311 3.47524 5.21098 5.30066C2.11507 8.5723 -2.59787e-06 12.1296 0 17.8194C0.356977 28.4075 9.12339 34.8596 16.2344 36V33.0152C7.89419 31.3734 3.39703 23.5868 3.42392 17.4011C3.50467 12.5388 6.5626 8.48029 7.95093 7.23928C9.54537 5.68862 12.4575 3.32743 16.4235 2.85389L16.3839 0ZM20.0737 3.94594C18.4184 3.9517 16.7491 4.15178 15.1671 4.67028C10.8782 6.07602 7.79138 9.08941 6.38713 12.1611C4.378 16.5041 4.86743 22.3898 8.23608 26.5417C12.8103 31.4344 19.4453 32.9432 24.964 30.923C26.7011 30.2981 28.0175 29.6188 28.0175 29.6188L26.3766 27.1155C26.3766 27.1155 25.2042 27.7303 23.6671 28.2833C13.5042 31.0549 5.04458 21.7201 9.41832 13.4754C10.2282 11.6201 12.4439 8.86148 16.1708 7.54538C17.4589 7.09049 22.5256 6.21142 26.2213 8.72936C29.856 10.9396 33.4586 16.2996 31.19 21.3622C30.757 22.3286 29.7979 23.0224 28.6304 23.1059C28.6427 22.0811 28.596 20.5729 28.6051 19.3448C28.6201 17.3141 28.3607 16.0906 28.0652 15.2393C26.8976 11.5456 23.1205 9.95514 19.9742 10.0008C16.1694 10.0835 14.7424 11.2887 13.1378 13.2932C9.99106 17.5263 11.5176 22.4458 15.2801 24.7563C17.3314 25.9762 19.5887 26.2695 21.5806 25.9753C22.4484 25.8225 22.9688 25.6731 23.5554 25.453C24.1145 25.2279 24.8546 24.9305 24.5885 24.9176V21.731C23.7055 22.2199 23.0071 22.5218 22.3894 22.7705C21.7785 23.0165 21.3966 23.0618 21.0509 23.1372C19.2395 23.2513 18.3597 23.0215 16.8964 22.1512C12.7252 19.6884 14.3982 12.9948 19.9367 12.7935C22.3298 13.0355 23.9434 13.9544 24.7681 16.204C24.9905 16.8887 25.2347 17.863 25.2136 19.4327C25.186 21.4835 25.1964 24.3454 25.1964 24.3454L25.242 26.0244H26.5521C26.5521 26.0244 27.3342 26.0483 28.2844 26.0184C28.7595 26.0034 29.2999 25.9254 29.8218 25.8244C30.3437 25.7234 30.9052 25.5211 31.5338 25.0819C32.1206 24.6719 33.0663 23.877 33.7288 22.5371C34.3912 21.1973 34.7746 19.2958 34.5954 16.7051C34.2553 11.7868 31.61 8.71639 28.0104 6.18864C25.4684 4.71848 22.5556 3.96373 20.0737 3.94594Z" fill="#D40000"/>
<path d="M73.7143 5.88318C72.2676 5.88455 70.8138 6.683 70.0839 8.22463C68.3299 11.9293 67.8712 12.772 66.0642 16.7713C64.854 19.4496 64.1795 20.7591 62.6244 24.1133C62.1523 25.1317 59.8228 30.0908 59.8228 30.0908L65.6186 30.1148C67.0195 27.0828 67.1491 26.8538 67.6054 25.7735C68.7739 23.5827 69.4667 21.8045 70.7402 19.1947C71.7488 17.1277 72.2742 15.9238 72.6948 15.0612C73.162 14.1032 73.1913 13.6707 73.7484 13.6507C74.1413 13.6367 74.5475 14.8297 75.6028 16.9751C76.2266 18.2434 77.3542 20.6536 77.7581 21.5062C78.1401 22.3123 78.3767 22.9984 78.6813 23.48C79.0637 24.0846 79.324 24.7136 79.3456 24.7826C79.4179 25.0144 78.3493 24.8741 76.9996 24.8845C74.4402 24.9041 70.7562 24.8765 70.7562 24.8765L68.3139 30.0888C75.3587 30.1984 80.5367 29.9141 87.5376 30.1168C84.382 23.2826 78.465 10.8055 78.1756 10.1665C77.8862 9.52757 77.4856 8.74837 77.3046 8.32452C76.6011 6.67714 75.1611 5.88181 73.7143 5.88318ZM45.8551 6.27675C45.8551 6.27675 43.8477 6.46938 43.3967 6.79219C41.4352 7.64592 39.7882 9.31935 39.1863 15.4947C39.0606 19.273 39.0138 22.6377 40.0412 25.5737C40.877 27.8929 42.897 30.032 44.6409 30.0648H57.8862L60.162 24.8265C60.162 24.8265 51.0738 24.9254 46.7361 24.9144C44.1552 24.9079 44.66 19.2783 44.5627 15.9742C44.5627 15.9742 44.7793 11.5488 46.2986 11.577C51.1064 11.6661 65.6969 11.543 65.6969 11.543L68.4142 6.37864L45.8551 6.27675ZM78.8599 6.35067C78.8729 6.48442 81.4932 11.5778 81.4146 11.591C84.2662 11.6056 87.2473 11.481 90.3913 11.591L90.3873 30.0588L95.7015 30.0768L95.7115 11.537L104.981 11.523C105.033 9.03119 104.958 7.75527 104.981 6.37664C96.0431 6.34715 88.2875 6.35627 78.8599 6.35067H78.8599Z" fill="white"/>
</svg>
