<svg width="80" height="63" viewBox="0 0 80 63" fill="none" xmlns="http://www.w3.org/2000/svg">
<path d="M37.0727 63C57.5474 63 74.1455 62.4438 74.1455 61.7577C74.1455 61.0715 57.5474 60.5153 37.0727 60.5153C16.598 60.5153 0 61.0715 0 61.7577C0 62.4438 16.598 63 37.0727 63Z" fill="#E6E6E6"/>
<path d="M36.5162 20.1956C39.0371 20.1956 41.0807 18.1224 41.0807 15.565C41.0807 13.0076 39.0371 10.9344 36.5162 10.9344C33.9953 10.9344 31.9517 13.0076 31.9517 15.565C31.9517 18.1224 33.9953 20.1956 36.5162 20.1956Z" fill="#D94141"/>
<path d="M35.3087 26.2717L33.2432 24.6681L25.8488 38.255C25.6166 38.2978 25.4019 38.409 25.2315 38.5748C25.0612 38.7405 24.9426 38.9534 24.8908 39.187C24.8389 39.4206 24.8559 39.6645 24.9397 39.8884C25.0235 40.1122 25.1704 40.3061 25.3621 40.4458C25.5538 40.5856 25.7817 40.665 26.0176 40.6742C26.2535 40.6834 26.4868 40.6219 26.6885 40.4976C26.8901 40.3732 27.0513 40.1913 27.1518 39.9746C27.2523 39.758 27.2877 39.5161 27.2536 39.2792L35.3087 26.2717Z" fill="#FFB8B8"/>
<path d="M54.162 33.9833C54.0775 33.7354 53.9166 33.5217 53.7031 33.3738C53.4896 33.2259 53.2348 33.1518 52.9765 33.1623L41.0624 23.6814L39.2754 25.5985L51.8263 34.4732C51.839 34.6461 51.888 34.8144 51.97 34.9666C52.0519 35.1188 52.1649 35.2516 52.3015 35.356C52.438 35.4605 52.5949 35.5342 52.7617 35.5722C52.9286 35.6102 53.1015 35.6117 53.2689 35.5766C53.4364 35.5415 53.5945 35.4706 53.7328 35.3685C53.8711 35.2665 53.9863 35.1357 54.0708 34.985C54.1553 34.8342 54.2072 34.6668 54.2229 34.4941C54.2386 34.3214 54.2178 34.1472 54.162 33.9833V33.9833Z" fill="#FFB8B8"/>
<path d="M40.335 60.4267H41.7386L42.4065 54.9346H40.335V60.4267Z" fill="#FFB8B8"/>
<path d="M44.4453 61.7489H40.034V60.0199H42.7409C43.193 60.0199 43.6265 60.202 43.9461 60.5263C44.2657 60.8506 44.4453 61.2903 44.4453 61.7489V61.7489Z" fill="#2F2E41"/>
<path d="M29.2129 59.1555L30.5024 59.7177L33.2538 54.9393L31.3505 54.1095L29.2129 59.1555Z" fill="#FFB8B8"/>
<path d="M32.4746 62.0167L28.4217 60.2497L29.0947 58.6612L31.5817 59.7455C31.997 59.9265 32.3244 60.2675 32.4918 60.6935C32.6593 61.1194 32.6531 61.5954 32.4746 62.0167Z" fill="#2F2E41"/>
<path d="M33.5876 34.0928L26.9106 55.4312L35.6741 56.3837L36.5157 43.9131L37.6563 56.3837L44.7506 55.537C44.7506 55.537 43.4691 35.7862 41.1365 34.5161C38.8039 33.2461 33.5876 34.0928 33.5876 34.0928Z" fill="#2F2E41"/>
<path d="M37.2082 21.3118C38.8215 21.3118 40.1294 19.985 40.1294 18.3484C40.1294 16.7117 38.8215 15.385 37.2082 15.385C35.5949 15.385 34.2871 16.7117 34.2871 18.3484C34.2871 19.985 35.5949 21.3118 37.2082 21.3118Z" fill="#FFB8B8"/>
<path d="M37.1148 35.0494C35.0864 35.0494 33.1344 34.9581 33.0338 34.7812C33.0253 34.7664 33.022 34.749 33.0246 34.732C33.0272 34.715 33.0355 34.6994 33.0481 34.6879C33.1876 34.4795 32.86 31.0911 32.1701 25.626C32.0919 24.986 32.2315 24.3381 32.5657 23.7895C32.8999 23.2409 33.4087 22.8245 34.008 22.6092L34.0209 22.6062L40.1344 21.9938L40.2029 22.0133C40.8077 22.1839 41.3372 22.5581 41.7046 23.0744C42.0719 23.5907 42.2553 24.2185 42.2244 24.8545C42.0668 28.3407 41.8022 34.2455 41.8022 34.622C41.8022 34.7244 41.6617 34.7757 41.5393 34.809C40.9441 34.9708 38.9966 35.0494 37.1148 35.0494Z" fill="#2F2E41"/>
<path d="M12.43 10.415L5.61328 19.0569L14.1319 25.9723L20.9486 17.3304L12.43 10.415Z" fill="#F2F2F2"/>
<path d="M14.0723 27.9125C13.5935 27.8385 13.147 27.622 12.7894 27.2905C12.4317 26.9591 12.179 26.5274 12.0632 26.0503C11.9474 25.5731 11.9737 25.0718 12.1387 24.6098C12.3037 24.1477 12.6001 23.7457 12.9903 23.4546C13.3806 23.1634 13.8472 22.9962 14.3311 22.9741C14.815 22.9519 15.2945 23.0758 15.709 23.3302C16.1235 23.5845 16.4544 23.9578 16.6597 24.4029C16.8651 24.848 16.9357 25.3448 16.8627 25.8307C16.8142 26.1532 16.7036 26.4629 16.5372 26.7421C16.3707 27.0213 16.1517 27.2645 15.8925 27.4579C15.6334 27.6512 15.3393 27.7908 15.027 27.8688C14.7147 27.9469 14.3903 27.9617 14.0723 27.9125ZM14.777 23.2232C14.3416 23.1559 13.8964 23.221 13.4975 23.4104C13.0987 23.5998 12.7641 23.9049 12.5362 24.2872C12.3083 24.6695 12.1973 25.1117 12.2171 25.558C12.2369 26.0043 12.3868 26.4346 12.6477 26.7945C12.9086 27.1544 13.2689 27.4277 13.6829 27.5799C14.0969 27.7321 14.5462 27.7563 14.9738 27.6495C15.4014 27.5427 15.7882 27.3097 16.0852 26.9798C16.3823 26.65 16.5762 26.2383 16.6426 25.7966C16.7309 25.2045 16.5841 24.601 16.2343 24.1186C15.8846 23.6361 15.3605 23.3141 14.777 23.2232Z" fill="#3F3D56"/>
<path d="M8.85986 55.9283C8.02379 58.7616 9.32137 61.6583 9.32137 61.6583C9.32137 61.6583 11.9745 59.9614 12.8106 57.1282C13.6467 54.2949 12.3491 51.3982 12.3491 51.3982C12.3491 51.3982 9.69594 53.0951 8.85986 55.9283Z" fill="#E6E6E6"/>
<path d="M10.1288 56.005C10.8324 58.875 9.40188 61.7066 9.40188 61.7066C9.40188 61.7066 6.83044 59.8848 6.12677 57.0148C5.4231 54.1447 6.85366 51.3132 6.85366 51.3132C6.85366 51.3132 9.4251 53.1349 10.1288 56.005Z" fill="#E6E6E6"/>
<path d="M33.1001 16.3856C34.6535 17.2436 36.402 17.6722 38.1703 17.6283C38.8475 17.6105 39.5938 17.4855 40.0227 16.9535C40.5066 16.3532 40.3855 15.4153 39.9187 14.8011C39.4519 14.187 38.7215 13.8408 37.9929 13.6061C37.3036 13.3839 36.5649 13.2409 35.858 13.3962C35.4849 13.4781 35.1336 13.6406 34.828 13.8726C34.5224 14.1046 34.2696 14.4006 34.0868 14.7405C33.904 15.0805 33.7955 15.4564 33.7687 15.8427C33.7419 16.2289 33.7974 16.6165 33.9315 16.9791" fill="#D94141"/>
<path d="M33.2876 14.8874C34.7018 14.8874 35.8482 13.7244 35.8482 12.2897C35.8482 10.8551 34.7018 9.69209 33.2876 9.69209C31.8735 9.69209 30.7271 10.8551 30.7271 12.2897C30.7271 13.7244 31.8735 14.8874 33.2876 14.8874Z" fill="#D94141"/>
<path d="M79.5577 12.5777L69.5064 6.63469L70.7958 4.39044C70.8326 4.32637 70.8566 4.25557 70.8664 4.18209C70.8763 4.10861 70.8718 4.03388 70.8531 3.96217C70.8345 3.89046 70.8021 3.82317 70.7579 3.76415C70.7136 3.70514 70.6583 3.65554 70.5952 3.6182C70.532 3.58085 70.4622 3.55649 70.3898 3.54651C70.3174 3.53653 70.2437 3.54112 70.173 3.56002C70.1023 3.57892 70.036 3.61175 69.9778 3.65665C69.9196 3.70156 69.8707 3.75764 69.8339 3.82171L68.5445 6.06596L58.4932 0.122912C58.2891 0.00224676 58.0462 -0.031233 57.8177 0.0298365C57.5893 0.0909061 57.3942 0.241523 57.2752 0.448553L49.4268 14.1093C49.3079 14.3163 49.2749 14.5628 49.3351 14.7945C49.3953 15.0262 49.5437 15.2242 49.7478 15.3449L59.7992 21.2879L50.9977 36.6075C50.9609 36.6716 50.9369 36.7424 50.927 36.8158C50.9171 36.8893 50.9217 36.9641 50.9403 37.0358C50.9589 37.1075 50.9913 37.1748 51.0355 37.2339C51.0798 37.2929 51.1351 37.3425 51.1983 37.3799C51.2614 37.4172 51.3312 37.4416 51.4037 37.4515C51.4761 37.4615 51.5498 37.4569 51.6205 37.438C51.6912 37.4191 51.7576 37.3862 51.8157 37.3413C51.8739 37.2964 51.9228 37.2402 51.9596 37.1762L60.761 21.8566L70.8124 27.7997C70.9134 27.8594 71.0251 27.8984 71.141 27.9144C71.2569 27.9303 71.3747 27.923 71.4878 27.8928C71.6009 27.8625 71.707 27.81 71.8001 27.7381C71.8932 27.6663 71.9714 27.5765 72.0303 27.474L79.8787 13.8133C79.9376 13.7108 79.9761 13.5975 79.9918 13.4799C80.0075 13.3624 80.0003 13.2428 79.9705 13.1281C79.9407 13.0133 79.8889 12.9057 79.8181 12.8113C79.7472 12.7168 79.6588 12.6375 79.5577 12.5777Z" fill="#3F3D56"/>
<path opacity="0.1" d="M65.6167 20.8061C65.9263 20.2672 64.5409 18.8628 62.5223 17.6692C60.5037 16.4757 58.6163 15.945 58.3067 16.4839C57.9971 17.0228 59.3825 18.4272 61.4011 19.6208C63.4197 20.8143 65.3071 21.345 65.6167 20.8061Z" fill="black"/>
<path d="M64.6524 19.3825C67.6037 19.3825 69.9962 16.9554 69.9962 13.9614C69.9962 10.9673 67.6037 8.54021 64.6524 8.54021C61.7011 8.54021 59.3086 10.9673 59.3086 13.9614C59.3086 16.9554 61.7011 19.3825 64.6524 19.3825Z" fill="#D94141"/>
<path d="M66.9772 16.6432C66.6676 17.1821 64.4839 17.522 62.8902 16.5797C61.2966 15.6374 60.8965 13.7698 61.2061 13.2309C61.5158 12.692 62.4178 13.6859 64.0114 14.6282C65.6051 15.5704 67.2868 16.1043 66.9772 16.6432Z" fill="#F2F2F2"/>
<path d="M63.4902 12.1807C64.1051 12.1807 64.6035 11.6751 64.6035 11.0513C64.6035 10.4276 64.1051 9.92194 63.4902 9.92194C62.8754 9.92194 62.377 10.4276 62.377 11.0513C62.377 11.6751 62.8754 12.1807 63.4902 12.1807Z" fill="#F2F2F2"/>
<path d="M67.5298 14.5693C68.1447 14.5693 68.6431 14.0637 68.6431 13.4399C68.6431 12.8162 68.1447 12.3105 67.5298 12.3105C66.9149 12.3105 66.4165 12.8162 66.4165 13.4399C66.4165 14.0637 66.9149 14.5693 67.5298 14.5693Z" fill="#F2F2F2"/>
</svg>
