<svg width="24" height="24" viewBox="0 0 24 24" fill="none" xmlns="http://www.w3.org/2000/svg">
<g opacity="0.7">
<path d="M12 0C5.38298 0 0 5.38298 0 12C0 18.617 5.38298 24 12 24C18.617 24 24 18.617 24 12C24 5.38298 18.617 0 12 0ZM7.5 6.99998C8.32702 6.99998 9 7.67297 9 8.49998C9 9.327 8.32702 9.99998 7.5 9.99998C6.67298 9.99998 6 9.327 6 8.49998C6 7.67302 6.67298 6.99998 7.5 6.99998ZM17.893 15.77C16.596 17.792 14.393 19 12 19C9.60703 19 7.404 17.792 6.10702 15.77C5.958 15.538 6.02503 15.228 6.258 15.079C6.489 14.929 6.80002 14.997 6.94898 15.23C8.06198 16.964 9.95002 18 12 18C14.05 18 15.938 16.964 17.051 15.23C17.2 14.998 17.509 14.929 17.742 15.079C17.974 15.228 18.042 15.538 17.893 15.77ZM16.5 9.99998C15.673 9.99998 15 9.327 15 8.49998C15 7.67297 15.673 6.99998 16.5 6.99998C17.327 6.99998 18 7.67297 18 8.49998C18 9.327 17.327 9.99998 16.5 9.99998Z" fill="#0B1726"/>
</g>
</svg>
