<svg width="238" height="185" viewBox="0 0 238 185" fill="none" xmlns="http://www.w3.org/2000/svg">
<g clip-path="url(#clip0)">
<path opacity="0.24" d="M17.3822 152.168C13.5257 147.2 10.1946 141.606 8.46808 135.382C4.61155 121.431 9.21579 106.456 14.908 93.2552C20.369 80.6101 29.9512 64.1499 30.1485 49.8523C30.1863 47.2721 29.5687 44.7376 29.199 42.1847C28.4388 36.6269 28.8501 30.9528 30.4016 25.5952C31.953 20.2376 34.6036 15.3382 38.151 11.2706C43.8271 4.98402 51.3682 1.11576 59.4195 0.36083C84.6541 -2.15076 111.93 9.18637 127.863 11.4907C146.216 14.1492 164.994 7.81769 183.276 11.0317C199.545 13.883 215.311 5.5772 223.788 21.0217C232.266 36.4661 233.148 75.4303 226.825 92.0652C224.49 98.2132 221.146 103.93 219.562 110.357C217.823 117.428 218.331 124.935 219.486 132.148C220.406 137.906 221.734 143.728 221.024 149.522C220.183 156.41 216.5 162.553 211.992 167.452C199.516 181.015 180.864 186.001 163.301 184.835C145.737 183.67 128.9 177.03 112.471 170.175C108.522 168.522 104.553 166.842 100.381 166.074C95.6136 165.202 90.7179 165.556 85.918 166.006C72.4249 167.25 58.3147 171.771 44.9014 172.016C34.3855 172.21 23.7424 160.368 17.3822 152.168Z" fill="#FFE0E0"/>
<path d="M194.558 100.422C195.112 98.8016 194.906 96.9928 195.15 95.28C195.235 94.4623 195.513 93.6825 195.955 93.0167C196.325 92.5185 196.819 92.1474 197.377 91.9479C197.935 91.7484 198.534 91.7289 199.101 91.8918C200.601 92.3508 201.555 94.0544 201.723 95.7439C201.891 97.4334 201.433 99.1141 200.929 100.721C199.874 104.059 198.614 107.314 197.539 110.643C196.653 113.398 196.081 116.961 198.148 118.811C198.678 119.27 199.341 119.587 199.79 120.152C200.161 120.67 200.4 121.286 200.483 121.937C201.294 126.625 198.24 131.179 194.602 133.788C193.394 134.651 192.044 135.395 190.603 135.436C188.326 135.496 186.255 133.728 185.201 131.52C184.147 129.311 183.941 126.745 183.983 124.256C184.078 121.09 184.345 117.933 184.781 114.802C185.083 112.304 185.394 109.751 186.251 107.455C186.902 105.683 188.242 102.864 190.107 102.451C191.972 102.038 193.555 103.361 194.558 100.422Z" fill="#F54747"/>
<path d="M193.774 100.326C194.328 98.7009 194.122 96.8965 194.366 95.1837C194.451 94.3644 194.728 93.5831 195.171 92.9155C195.542 92.4181 196.035 92.0479 196.593 91.8492C197.151 91.6504 197.75 91.6317 198.317 91.795C199.817 92.254 200.771 93.9576 200.939 95.6427C201.107 97.3278 200.649 99.0129 200.145 100.62C199.09 103.958 197.83 107.213 196.755 110.546C195.869 113.301 195.297 116.859 197.364 118.71C197.893 119.169 198.557 119.491 199.006 120.055C199.377 120.572 199.616 121.187 199.699 121.837C200.51 126.529 197.456 131.079 193.818 133.692C192.61 134.555 191.26 135.299 189.819 135.336C187.542 135.4 185.471 133.628 184.417 131.424C183.363 129.22 183.157 126.644 183.198 124.156C183.295 120.99 183.561 117.833 183.997 114.702C184.299 112.204 184.61 109.678 185.467 107.355C186.118 105.587 187.458 102.791 189.328 102.355C191.197 101.918 192.77 103.255 193.774 100.326Z" fill="url(#paint0_linear)"/>
<path d="M198.745 79.4579C194.376 87.3826 195.599 98.0855 190.575 105.537C189.05 107.8 187.021 109.633 185.651 112.016C184.281 114.399 183.726 117.695 185.305 119.913C189.556 117.217 191.039 111.455 193.156 106.597C193.302 106.189 193.539 105.828 193.845 105.546C194.992 104.66 196.416 106.395 196.543 107.922C196.883 111.995 193.725 115.31 192.418 119.139C190.78 123.942 191.952 129.966 188.843 133.804C188.213 134.58 187.364 135.242 186.41 135.246C185.715 135.202 185.042 134.956 184.461 134.535C182.176 133.079 180.235 131.057 178.796 128.632C177.356 126.207 176.458 123.447 176.172 120.573C175.723 115.678 176.248 109.939 178.991 106.041C181.23 102.859 181.158 99.4832 182.528 95.6637C183.96 91.6999 186.2 88.1449 189.077 85.2688C190.449 83.896 191.961 82.7018 193.585 81.7103C194.5 81.1659 198.336 80.2201 198.745 79.4579Z" fill="#F54747"/>
<path d="M198.155 79.4579C193.786 87.3826 195.004 98.0855 189.985 105.537C188.46 107.801 186.431 109.633 185.062 112.016C183.692 114.399 183.138 117.695 184.713 119.913C188.968 117.218 190.447 111.455 192.568 106.598C192.712 106.189 192.949 105.827 193.257 105.546C194.404 104.66 195.828 106.396 195.955 107.923C196.295 111.995 193.137 115.311 191.83 119.14C190.192 123.943 191.364 129.966 188.255 133.805C187.625 134.581 186.772 135.242 185.823 135.247C185.126 135.202 184.452 134.956 183.87 134.535C181.585 133.078 179.645 131.056 178.206 128.631C176.766 126.207 175.867 123.446 175.58 120.573C175.135 115.678 175.661 109.939 178.399 106.041C180.642 102.859 180.57 99.4833 181.942 95.6637C183.374 91.6999 185.614 88.1449 188.491 85.2688C189.862 83.896 191.375 82.7018 192.999 81.7103C193.917 81.1659 197.748 80.2201 198.155 79.4579Z" fill="url(#paint1_linear)"/>
<path d="M42.184 109.385C41.3437 106.63 41.0079 103.752 40.2138 100.996C39.4198 98.2409 38.0295 95.5098 35.7107 94.131C33.3918 92.7522 30.01 93.2679 28.7332 95.7976C28.227 96.888 28.0441 98.1236 28.2098 99.3328C28.672 103.598 31.9234 106.936 32.7887 111.127C33.3053 113.616 32.9316 116.228 33.2674 118.758C33.5108 120.526 34.0908 122.218 34.9699 123.726C35.8491 125.233 37.0079 126.522 38.3713 127.509C39.9255 128.621 41.7068 129.309 43.2945 130.365C45.3833 131.764 47.0829 133.759 48.2096 136.137C49.5282 134.83 50.5688 133.223 51.2583 131.43C51.9477 129.636 52.2692 127.699 52.2002 125.755C51.8414 117.316 44.3683 116.419 42.184 109.385Z" fill="#F54747"/>
<path d="M42.184 109.385C41.3437 106.63 41.0079 103.752 40.2138 100.996C39.4198 98.2409 38.0295 95.5098 35.7107 94.131C33.3918 92.7522 30.01 93.2679 28.7332 95.7976C28.227 96.888 28.0441 98.1236 28.2098 99.3328C28.672 103.598 31.9234 106.936 32.7887 111.127C33.3053 113.616 32.9316 116.228 33.2674 118.758C33.5108 120.526 34.0908 122.218 34.9699 123.726C35.8491 125.233 37.0079 126.522 38.3713 127.509C39.9255 128.621 41.7068 129.309 43.2945 130.365C45.3833 131.764 47.0829 133.759 48.2096 136.137C49.5282 134.83 50.5688 133.223 51.2583 131.43C51.9477 129.636 52.2692 127.699 52.2002 125.755C51.8414 117.316 44.3683 116.419 42.184 109.385Z" fill="url(#paint2_linear)"/>
<path d="M51.1356 94.2287C50.7954 92.4335 50.8078 90.5557 50.2953 88.8063C49.7827 87.057 48.5639 85.3582 46.8925 85.1743C44.9687 84.963 43.2965 86.9144 42.9063 88.985C42.5162 91.0556 43.0618 93.1861 43.6078 95.2158L45.7377 103.159C46.4013 105.623 46.8047 108.884 44.7927 110.216C44.3159 110.477 43.8248 110.706 43.3223 110.901C42.4834 111.326 41.7774 112.012 41.292 112.873C40.8066 113.734 40.5632 114.731 40.5919 115.741C40.7011 118.25 42.4361 120.246 43.9524 122.137C45.4688 124.029 46.9223 126.435 46.3425 128.864C45.9226 130.664 44.3977 132.225 44.7126 134.052C44.9687 135.567 46.481 136.508 47.8935 136.522C49.306 136.536 50.6315 135.852 51.9055 135.182L57.9854 131.969C59.9386 130.936 61.9929 129.812 63.1606 127.809C63.8858 126.421 64.3056 124.868 64.387 123.273C64.9118 117.208 63.4205 111.14 60.1862 106.179C57.2103 101.653 52.3077 100.395 51.1356 94.2287Z" fill="#F54747"/>
<path d="M51.1356 94.2287C50.7954 92.4335 50.8078 90.5557 50.2953 88.8063C49.7827 87.057 48.5639 85.3582 46.8925 85.1743C44.9687 84.963 43.2965 86.9144 42.9063 88.985C42.5162 91.0556 43.0618 93.1861 43.6078 95.2158L45.7377 103.159C46.4013 105.623 46.8047 108.884 44.7927 110.216C44.3159 110.477 43.8248 110.706 43.3223 110.901C42.4834 111.326 41.7774 112.012 41.292 112.873C40.8066 113.734 40.5632 114.731 40.5919 115.741C40.7011 118.25 42.4361 120.246 43.9524 122.137C45.4688 124.029 46.9223 126.435 46.3425 128.864C45.9226 130.664 44.3977 132.225 44.7126 134.052C44.9687 135.567 46.481 136.508 47.8935 136.522C49.306 136.536 50.6315 135.852 51.9055 135.182L57.9854 131.969C59.9386 130.936 61.9929 129.812 63.1606 127.809C63.8858 126.421 64.3056 124.868 64.387 123.273C64.9118 117.208 63.4205 111.14 60.1862 106.179C57.2103 101.653 52.3077 100.395 51.1356 94.2287Z" fill="url(#paint3_linear)"/>
<path d="M175.752 37.3313H63.444C59.7574 37.3313 56.7689 40.5977 56.7689 44.6271V118.793C56.7689 122.822 59.7574 126.088 63.444 126.088H175.752C179.439 126.088 182.427 122.822 182.427 118.793V44.6271C182.427 40.5977 179.439 37.3313 175.752 37.3313Z" fill="#F54747"/>
<path d="M172.056 40.7657H66.0782C62.6005 40.7657 59.7812 43.8472 59.7812 47.6483V117.631C59.7812 121.432 62.6005 124.514 66.0782 124.514H172.056C175.534 124.514 178.353 121.432 178.353 117.631V47.6483C178.353 43.8472 175.534 40.7657 172.056 40.7657Z" fill="white"/>
<g opacity="0.52">
<path opacity="0.52" d="M100.608 58.9661H76.7645V60.876H100.608V58.9661Z" fill="#F54747"/>
<path opacity="0.52" d="M91.3161 62.6624H76.7645V64.4575H91.3161V62.6624Z" fill="#F54747"/>
<path opacity="0.52" d="M142.986 62.6624H97.1887V64.4667H142.986V62.6624Z" fill="#F54747"/>
<path opacity="0.52" d="M104.343 66.3723H84.3302V68.2638H104.343V66.3723Z" fill="#F54747"/>
<path opacity="0.52" d="M114.597 70.0681H90.7531V71.9781H114.597V70.0681Z" fill="#F54747"/>
<path opacity="0.52" d="M136.135 70.0681H116.151V72.1893H136.135V70.0681Z" fill="#F54747"/>
<path opacity="0.52" d="M109.132 73.7689H90.7197V75.5641H109.132V73.7689Z" fill="#F54747"/>
<path opacity="0.52" d="M148.888 73.7689H110.896V75.7568H148.888V73.7689Z" fill="#F54747"/>
<path opacity="0.52" d="M100.608 78.7736H76.7645V80.6836H100.608V78.7736Z" fill="#F54747"/>
<path opacity="0.52" d="M91.3161 82.4698H76.7645V84.265H91.3161V82.4698Z" fill="#F54747"/>
<path opacity="0.52" d="M142.986 82.4698H97.1887V84.2742H142.986V82.4698Z" fill="#F54747"/>
<path opacity="0.52" d="M104.343 86.1705H84.3302V88.062H104.343V86.1705Z" fill="#F54747"/>
<path opacity="0.52" d="M114.597 89.8756H90.7531V91.7856H114.597V89.8756Z" fill="#F54747"/>
<path opacity="0.52" d="M136.135 89.8756H116.151V91.9968H136.135V89.8756Z" fill="#F54747"/>
<path opacity="0.52" d="M109.132 93.5764H90.7197V95.3716H109.132V93.5764Z" fill="#F54747"/>
<path opacity="0.52" d="M148.888 93.5764H110.896V95.5643H148.888V93.5764Z" fill="#F54747"/>
<path opacity="0.52" d="M100.608 98.5811H76.7645V100.491H100.608V98.5811Z" fill="#F54747"/>
<path opacity="0.52" d="M91.3161 102.277H76.7645V104.073H91.3161V102.277Z" fill="#F54747"/>
<path opacity="0.52" d="M142.986 102.277H97.1887V104.082H142.986V102.277Z" fill="#F54747"/>
<path opacity="0.52" d="M104.343 105.978H84.3302V107.87H104.343V105.978Z" fill="#F54747"/>
<path opacity="0.52" d="M114.597 109.674H90.7531V111.584H114.597V109.674Z" fill="#F54747"/>
<path opacity="0.52" d="M136.135 109.674H116.151V111.795H136.135V109.674Z" fill="#F54747"/>
<path opacity="0.52" d="M109.132 113.384H90.7197V115.179H109.132V113.384Z" fill="#F54747"/>
<path opacity="0.52" d="M148.888 113.384H110.896V115.372H148.888V113.384Z" fill="#F54747"/>
</g>
<path opacity="0.24" d="M35.1428 85.2657H78.1887C81.497 85.2657 84.1788 82.3345 84.1788 78.7186V69.7509C84.1788 66.135 81.497 63.2037 78.1887 63.2037L35.1428 63.2037C31.8345 63.2037 29.1526 66.135 29.1526 69.7509V78.7186C29.1526 82.3345 31.8345 85.2657 35.1428 85.2657Z" fill="#F54747"/>
<path d="M60.7934 125.418L37.4327 144.643H200.978L178.138 125.133L60.7934 125.418Z" fill="#F54747"/>
<path d="M60.7934 125.418L37.4327 144.643H200.978L178.138 125.133L60.7934 125.418Z" fill="url(#paint4_linear)"/>
<path d="M167.196 133.201C168.069 133.509 168.733 134.697 168.237 135.547C167.859 136.194 166.906 136.617 167.099 137.356L169.334 138.588C169.584 138.692 169.796 138.882 169.938 139.13C170.257 139.887 169.215 140.429 168.455 140.507L150.925 142.048C148.572 142.254 146.178 142.457 143.878 141.869C142.322 141.403 140.815 140.759 139.384 139.945L132.957 136.607C132.003 136.111 131.007 135.578 130.377 134.651C129.747 133.724 129.621 132.275 130.377 131.488C130.923 130.937 131.726 130.854 132.478 130.808C138.475 130.441 144.49 130.57 150.47 131.194C153.377 131.5 156.272 131.922 159.157 132.461C160.593 132.727 162.148 133.306 163.593 133.379C164.762 133.43 166.053 132.792 167.196 133.201Z" fill="url(#paint5_linear)"/>
<path d="M44.1247 151.672L37.4327 144.643H200.978L194.938 152.104L44.1247 151.672Z" fill="#F54747"/>
<path d="M44.1247 151.672L37.4327 144.643H200.978L194.938 152.104L44.1247 151.672Z" fill="url(#paint6_linear)"/>
<path opacity="0.58" d="M100.827 141.631L107.783 135.601L133.248 135.459L140.6 141.483L100.827 141.631Z" fill="#F54747"/>
<path opacity="0.58" d="M52.3958 134.505L184.7 134.312L177.613 127.999H60.5328L52.3958 134.505Z" fill="#F54747"/>
<path d="M133.82 133.577C134.727 134.594 135.769 135.454 136.912 136.13C137.516 136.529 138.327 136.915 138.873 136.428C139.419 135.942 139.26 135.051 138.982 134.394C138.273 132.691 136.6 130.863 134.832 130.56C132.854 130.221 132.661 132.14 133.82 133.577Z" fill="#606161"/>
<path d="M133.82 133.577C134.727 134.594 135.769 135.454 136.912 136.13C137.516 136.529 138.327 136.915 138.873 136.428C139.419 135.942 139.26 135.051 138.982 134.394C138.273 132.691 136.6 130.863 134.832 130.56C132.854 130.221 132.661 132.14 133.82 133.577Z" fill="url(#paint7_linear)"/>
<path d="M143.234 107.521L138.252 120.271L130.691 122.421L129.808 127.57L142.276 124.889L148.157 117.166C148.157 117.166 148.998 108.121 147.634 104.613C147.002 102.966 143.873 105.877 143.234 107.521Z" fill="#F54747"/>
<g opacity="0.24">
<path opacity="0.24" d="M214.891 16.8716H149.833C146.871 16.8716 144.469 19.4967 144.469 22.7349V49.2045C144.469 52.4427 146.871 55.0678 149.833 55.0678H214.891C217.854 55.0678 220.255 52.4427 220.255 49.2045V22.7349C220.255 19.4967 217.854 16.8716 214.891 16.8716Z" fill="#F54747"/>
<path opacity="0.24" d="M144.471 62.9378V49.0623H155.204L144.471 62.9378Z" fill="#F54747"/>
</g>
<path d="M214.891 13.3685H149.833C146.871 13.3685 144.469 15.9936 144.469 19.2318V45.7014C144.469 48.9396 146.871 51.5647 149.833 51.5647H214.891C217.854 51.5647 220.255 48.9396 220.255 45.7014V19.2318C220.255 15.9936 217.854 13.3685 214.891 13.3685Z" fill="white"/>
<path d="M144.471 59.4343V45.5592H155.204L144.471 59.4343Z" fill="white"/>
<path d="M34.1599 83.3329H77.2058C80.514 83.3329 83.1959 80.4016 83.1959 76.7857V67.818C83.1959 64.2021 80.514 61.2708 77.2058 61.2708L34.1599 61.2708C30.8516 61.2708 28.1697 64.2021 28.1697 67.818V76.7857C28.1697 80.4016 30.8516 83.3329 34.1599 83.3329Z" fill="white"/>
<g opacity="0.52">
<path opacity="0.52" d="M49.4683 66.1333H36.6642V67.1618H49.4683V66.1333Z" fill="#F54747"/>
<path opacity="0.52" d="M44.482 68.1168H36.6642V69.0811H44.482V68.1168Z" fill="#F54747"/>
<path opacity="0.52" d="M72.2322 68.1168H47.6367V69.0855H72.2322V68.1168Z" fill="#F54747"/>
<path opacity="0.52" d="M51.4763 70.1095H40.7305V71.1243H51.4763V70.1095Z" fill="#F54747"/>
<path opacity="0.52" d="M56.9832 72.0979H44.1791V73.1264H56.9832V72.0979Z" fill="#F54747"/>
<path opacity="0.52" d="M68.5521 72.0979H57.8192V73.2364H68.5521V72.0979Z" fill="#F54747"/>
<path opacity="0.52" d="M54.0513 74.0813H44.1627V75.0455H54.0513V74.0813Z" fill="#F54747"/>
<path opacity="0.52" d="M75.3996 74.0813H54.9963V75.1512H75.3996V74.0813Z" fill="#F54747"/>
<path opacity="0.52" d="M49.4683 76.7672H36.6642V77.7957H49.4683V76.7672Z" fill="#F54747"/>
<path opacity="0.52" d="M44.482 78.755H36.6642V79.7192H44.482V78.755Z" fill="#F54747"/>
<path opacity="0.52" d="M72.2322 78.755H47.6367V79.7237H72.2322V78.755Z" fill="#F54747"/>
</g>
<path opacity="0.24" d="M111.228 52.183L111.455 50.9019C111.495 50.6629 111.536 50.4178 111.576 50.1538C111.945 50.2224 112.298 50.2823 112.651 50.3602C112.675 50.3702 112.7 50.3749 112.726 50.3738C112.751 50.3727 112.776 50.3659 112.799 50.3539C112.821 50.3418 112.842 50.3247 112.858 50.3037C112.875 50.2827 112.887 50.2582 112.895 50.2317C113.056 49.8919 113.231 49.5614 113.418 49.2397C113.436 49.2217 113.45 49.2 113.459 49.1759C113.468 49.1519 113.473 49.126 113.473 49.0998C113.473 49.0736 113.468 49.0476 113.459 49.0236C113.45 48.9995 113.436 48.9778 113.418 48.9598C113.183 48.6614 112.952 48.3538 112.708 48.0413L114.238 46.6366C114.478 46.9446 114.713 47.2426 114.936 47.555C114.95 47.5806 114.968 47.6028 114.99 47.6203C115.012 47.6378 115.037 47.6502 115.063 47.6567C115.089 47.6631 115.117 47.6636 115.143 47.658C115.17 47.6524 115.195 47.6409 115.218 47.6241C115.525 47.4748 115.84 47.3475 116.163 47.243C116.314 47.199 116.348 47.133 116.344 46.9812V45.8193H118.343V46.9856C118.343 47.1418 118.381 47.1968 118.524 47.2426C118.846 47.3483 119.161 47.4756 119.469 47.6237C119.491 47.6403 119.517 47.6515 119.544 47.6568C119.571 47.6621 119.598 47.6612 119.624 47.6543C119.651 47.6474 119.676 47.6346 119.698 47.6167C119.719 47.5988 119.737 47.5761 119.751 47.5502C119.973 47.247 120.204 46.9534 120.444 46.6317L121.977 48.0369L121.191 49.061C121.402 49.4928 121.611 49.9012 121.813 50.3008C121.838 50.3252 121.867 50.3433 121.899 50.3537C121.931 50.364 121.965 50.3664 121.998 50.3606L123.09 50.1542L123.439 52.3032C123.065 52.3767 122.704 52.4409 122.347 52.5188C122.313 52.5231 122.281 52.5368 122.254 52.5586C122.227 52.5803 122.205 52.6094 122.191 52.6429C122.12 53.1019 122.061 53.5614 121.998 54.0204L123.052 54.6906L122.053 56.583L120.99 55.9172C120.645 56.2155 120.313 56.5003 119.99 56.7973C119.971 56.8227 119.958 56.8527 119.953 56.8846C119.947 56.9166 119.948 56.9496 119.956 56.9809C120.077 57.3664 120.209 57.7523 120.339 58.1515L118.461 58.8996C118.347 58.5507 118.221 58.2109 118.12 57.8619C118.062 57.6599 117.982 57.6001 117.78 57.6185C117.456 57.6438 117.13 57.6438 116.806 57.6185C116.688 57.6185 116.642 57.6463 116.608 57.7655C116.491 58.1374 116.36 58.5093 116.226 58.904L114.327 58.1788L114.747 56.9113L113.68 55.9242L112.609 56.5993L111.61 54.7069C111.937 54.5005 112.248 54.2981 112.563 54.1053C112.586 54.0962 112.606 54.0822 112.623 54.0642C112.641 54.0462 112.654 54.0245 112.664 54.0004C112.673 53.9764 112.678 53.9505 112.678 53.9244C112.678 53.8982 112.673 53.8723 112.664 53.8483C112.588 53.4952 112.529 53.1381 112.487 52.7785C112.487 52.6024 112.433 52.5214 112.252 52.4986C111.908 52.4546 111.563 52.3745 111.219 52.3058L111.228 52.183ZM117.349 49.575C116.844 49.5679 116.349 49.7243 115.926 50.0244C115.502 50.3245 115.17 50.755 114.97 51.2614C114.77 51.7679 114.712 52.3276 114.803 52.87C114.895 53.4124 115.131 53.9132 115.482 54.3092C115.833 54.7052 116.283 54.9786 116.777 55.0949C117.27 55.2113 117.784 55.1654 118.253 54.963C118.722 54.7606 119.126 54.4107 119.414 53.9577C119.701 53.5046 119.86 52.9685 119.869 52.4171C119.875 52.0496 119.814 51.6843 119.691 51.3424C119.567 51.0005 119.383 50.6886 119.149 50.4247C118.915 50.1608 118.635 49.95 118.326 49.8045C118.017 49.659 117.685 49.5816 117.349 49.5768L117.349 49.575Z" fill="#F54747"/>
<path d="M159.541 32.467L167.3 28.0961V29.3587L160.759 32.9282V32.9604L167.298 36.5462V37.8088L159.539 33.4379L159.541 32.467Z" fill="#F54747"/>
<path d="M169.632 24.8289H171.102V30.3388H171.136C171.386 29.8626 171.751 29.4704 172.19 29.2047C172.648 28.9117 173.168 28.7535 173.698 28.7456C174.782 28.7456 176.521 29.4758 176.521 32.5304V37.8115H175.051V32.7262C175.051 31.2982 174.567 30.0906 173.177 30.0906C172.735 30.098 172.306 30.2578 171.952 30.5471C171.598 30.8365 171.336 31.2407 171.204 31.7022C171.123 31.9476 171.089 32.2084 171.103 32.4688V37.8088H169.633L169.632 24.8289Z" fill="#F54747"/>
<path d="M180.626 26.4176V28.9613H182.726V30.1733H180.626V34.9531C180.626 36.0503 180.911 36.6747 181.731 36.6747C182.014 36.6779 182.297 36.6409 182.571 36.5647L182.638 37.7723C182.218 37.9288 181.776 38.0018 181.332 37.988C181.038 38.0077 180.744 37.9576 180.47 37.841C180.196 37.7244 179.948 37.5443 179.744 37.3129C179.324 36.8539 179.172 36.0503 179.172 35.0174V30.1733H177.912V28.9609H179.172V26.8396L180.626 26.4176Z" fill="#F54747"/>
<path d="M184.393 31.3532C184.393 30.4348 184.372 29.691 184.322 28.9609H185.61L185.678 30.3842H185.728C185.971 29.8811 186.337 29.4624 186.787 29.1752C187.236 28.888 187.749 28.7438 188.269 28.7589C188.772 28.7545 189.264 28.9234 189.674 29.2415C190.084 29.5596 190.392 30.0108 190.555 30.5312H190.588C190.81 30.0808 191.118 29.6877 191.491 29.3786C192.003 28.9485 192.636 28.7291 193.281 28.7589C194.348 28.7589 195.938 29.5255 195.938 32.5974V37.8089H194.497V32.7994C194.497 31.0958 193.93 30.0708 192.741 30.0708C192.349 30.0927 191.972 30.2463 191.662 30.5109C191.352 30.7754 191.124 31.138 191.01 31.5491C190.933 31.8087 190.893 32.0798 190.892 32.3527V37.8089H189.456V32.5058C189.456 31.0975 188.884 30.0726 187.775 30.0726C187.238 30.1403 186.742 30.4222 186.382 30.8643C186.023 31.3064 185.825 31.8778 185.826 32.4693V37.8089H184.39L184.393 31.3532Z" fill="#F54747"/>
<path d="M198.348 24.8289H199.819V37.8088H198.348V24.8289Z" fill="#F54747"/>
<path d="M209.943 33.4559L202.184 37.8084V36.5462L208.771 32.9604V32.9282L202.184 29.3424V28.0793L209.943 32.4318V33.4559Z" fill="#F54747"/>
<path d="M133.925 123.15C132.623 123.416 131.358 124.707 131.375 126.332C131.375 127.636 132.177 128.706 132.934 129.619C137.604 135.248 143.436 140.239 149.989 140.235C152.131 140.235 154.248 139.688 156.391 139.537C157.811 139.435 159.281 139.5 160.592 138.807C162.541 137.774 163.684 135.312 164.687 133.007L167.872 125.748C168.619 124.035 169.361 121.91 168.535 120.238C167.779 118.728 166.079 118.457 164.649 118.709C161.784 119.215 159.234 121.125 156.622 122.663C153.353 124.591 148.976 127.043 145.25 126.607C141.524 126.171 137.752 122.365 133.925 123.15Z" fill="#606161"/>
<path d="M143.927 123.508C144.457 126.093 145.263 128.775 147.108 130.492C148.851 132.12 151.255 132.627 153.548 132.719C155.539 132.797 157.606 132.587 159.346 131.525C161.929 129.94 160.984 122.107 161.232 118.88C161.479 115.653 164.493 115.955 163.589 112.869C162.61 109.536 160.005 107.204 157.775 104.692C157.171 103.985 156.461 103.396 155.675 102.952C153.923 102.034 151.869 102.107 149.917 102.231C149.148 102.275 146.506 103.788 146.061 104.462C141.999 110.555 142.44 116.299 143.927 123.508Z" fill="#F54747"/>
<path d="M145.629 93.6775C145.388 93.9004 145.184 94.1658 145.025 94.4627C144.941 94.7193 144.911 94.9928 144.937 95.2637C144.962 95.5345 145.042 95.7957 145.172 96.0285C145.434 96.4904 145.665 96.9722 145.865 97.4702C146.15 98.4116 145.991 99.6421 146.738 100.199C147.268 100.589 148.061 100.447 148.494 100.956C149.002 101.562 148.683 102.719 149.297 103.192C149.513 103.329 149.757 103.403 150.007 103.408C150.71 103.534 151.428 103.534 152.132 103.408C152.484 103.342 152.818 103.187 153.105 102.954C153.391 102.721 153.624 102.417 153.783 102.067C153.922 101.638 153.985 101.183 153.968 100.727L154.115 94.2136C154.174 93.1822 154.123 92.1467 153.963 91.1281C153.803 90.1002 153.319 89.1659 152.594 88.4876C151.923 87.9524 151.123 87.6429 150.292 87.5968C149.528 87.4671 148.747 87.6437 148.092 88.0941C146.506 89.3752 147.023 92.1302 145.629 93.6775Z" fill="url(#paint8_linear)"/>
<path d="M148.074 90.4451C148.569 90.8078 149.149 91.0146 149.653 91.3636C150.083 91.6712 150.448 92.0765 150.722 92.5519C150.996 93.0273 151.173 93.5616 151.241 94.1186C151.497 93.7268 151.778 93.3554 152.081 93.0073C152.415 93.3214 152.688 93.7054 152.884 94.1366C152.976 94.3555 153.007 94.5996 152.972 94.8376C152.937 95.0756 152.837 95.2967 152.687 95.4727C152.493 95.6611 152.212 95.7574 152.098 96.0145C151.897 96.4735 152.397 96.9052 152.636 97.3413C152.913 97.8553 152.837 98.4939 152.846 99.0907C152.855 99.6874 153.027 100.385 153.539 100.592C154.22 100.863 154.846 100.078 155.219 99.3939C155.896 98.2581 156.418 97.0209 156.769 95.7209C157.118 94.4002 156.98 92.9826 156.383 91.7724C156.038 91.1436 155.543 90.6247 155.236 89.9681C154.761 88.9304 154.854 87.6721 154.35 86.6349C153.556 85.0065 150.02 83.6828 148.377 84.2289C145.889 85.0576 146.233 89.1183 148.074 90.4451Z" fill="#606161"/>
<path d="M126.746 123.521C125.808 123.772 124.92 124.206 124.125 124.803C123.458 125.379 122.853 126.037 122.322 126.763C122.234 126.846 122.166 126.95 122.123 127.068C122.08 127.185 122.063 127.312 122.074 127.438C122.101 127.514 122.141 127.583 122.192 127.641C122.243 127.699 122.305 127.746 122.373 127.778C122.986 128.127 123.73 127.879 124.393 127.663C125.083 127.432 125.784 127.242 126.493 127.094C126.871 127.011 127.355 126.993 127.54 127.36C127.616 127.511 127.621 127.695 127.701 127.847C127.782 127.966 127.895 128.053 128.024 128.097C128.153 128.141 128.292 128.138 128.42 128.09C128.672 127.98 128.899 127.812 129.088 127.599L130.726 125.955C130.935 125.765 131.118 125.544 131.272 125.298C131.53 124.786 131.599 124.185 131.465 123.618C131.209 122.76 131.297 122.962 130.461 122.911C129.202 122.908 127.95 123.114 126.748 123.522L126.746 123.521Z" fill="url(#paint9_linear)"/>
<path d="M143.747 122.797L147.33 115.909L147.099 130.473C147.099 130.473 144.729 129.394 143.747 122.797Z" fill="url(#paint10_linear)"/>
</g>
<defs>
<linearGradient id="paint0_linear" x1="196.44" y1="111.634" x2="166.702" y2="115.815" gradientUnits="userSpaceOnUse">
<stop stop-color="#010101" stop-opacity="0"/>
<stop offset="0.95" stop-color="#010101"/>
</linearGradient>
<linearGradient id="paint1_linear" x1="194.18" y1="105.511" x2="137.789" y2="111.752" gradientUnits="userSpaceOnUse">
<stop stop-color="#010101" stop-opacity="0"/>
<stop offset="0.95" stop-color="#010101"/>
</linearGradient>
<linearGradient id="paint2_linear" x1="35.5605" y1="112.665" x2="67.9611" y2="116.589" gradientUnits="userSpaceOnUse">
<stop stop-color="#010101" stop-opacity="0"/>
<stop offset="0.95" stop-color="#010101"/>
</linearGradient>
<linearGradient id="paint3_linear" x1="42.8602" y1="109.094" x2="113.211" y2="115.157" gradientUnits="userSpaceOnUse">
<stop stop-color="#010101" stop-opacity="0"/>
<stop offset="0.95" stop-color="#010101"/>
</linearGradient>
<linearGradient id="paint4_linear" x1="119.042" y1="116.218" x2="119.044" y2="147.686" gradientUnits="userSpaceOnUse">
<stop stop-color="white" stop-opacity="0"/>
<stop offset="0.95" stop-color="white"/>
</linearGradient>
<linearGradient id="paint5_linear" x1="149.565" y1="145.775" x2="149.724" y2="95.9807" gradientUnits="userSpaceOnUse">
<stop stop-color="#010101" stop-opacity="0"/>
<stop offset="0.95" stop-color="#010101"/>
</linearGradient>
<linearGradient id="paint6_linear" x1="117.897" y1="157.707" x2="117.907" y2="108.208" gradientUnits="userSpaceOnUse">
<stop stop-color="#010101" stop-opacity="0"/>
<stop offset="0.95" stop-color="#010101"/>
</linearGradient>
<linearGradient id="paint7_linear" x1="133.106" y1="133.588" x2="139.225" y2="133.588" gradientUnits="userSpaceOnUse">
<stop stop-color="#010101" stop-opacity="0"/>
<stop offset="0.95" stop-color="#010101"/>
</linearGradient>
<linearGradient id="paint8_linear" x1="144.919" y1="95.5449" x2="154.129" y2="95.5449" gradientUnits="userSpaceOnUse">
<stop stop-color="#E5C6D6"/>
<stop offset="0.42" stop-color="#EAD4D0"/>
<stop offset="1" stop-color="#F0E9CB"/>
</linearGradient>
<linearGradient id="paint9_linear" x1="122.061" y1="125.509" x2="131.541" y2="125.509" gradientUnits="userSpaceOnUse">
<stop stop-color="#E5C6D6"/>
<stop offset="0.42" stop-color="#EAD4D0"/>
<stop offset="1" stop-color="#F0E9CB"/>
</linearGradient>
<linearGradient id="paint10_linear" x1="143.087" y1="126.468" x2="155.13" y2="125.893" gradientUnits="userSpaceOnUse">
<stop stop-color="#010101" stop-opacity="0"/>
<stop offset="0.95" stop-color="#010101"/>
</linearGradient>
<clipPath id="clip0">
<rect width="238" height="185" fill="white"/>
</clipPath>
</defs>
</svg>
