<svg width="80" height="63" viewBox="0 0 80 63" fill="none" xmlns="http://www.w3.org/2000/svg">
<g clip-path="url(#clip0)">
<path opacity="0.1" d="M0.861328 30.2045C2.12458 35.4167 4.79653 39.9223 9.019 42.1064C17.797 46.6453 37.5938 44.3044 52.3688 41.6172C60.0115 40.2274 66.7292 36.3919 71.6091 30.9942L0.861328 30.2045Z" fill="#D94141"/>
<path opacity="0.1" d="M78.3402 5.67023H70.2335C69.8488 5.67023 69.5331 5.36587 69.5331 4.99396C69.5331 4.62205 69.8488 4.31692 70.2335 4.31692H71.6356C71.2502 4.31692 70.9353 4.01256 70.9353 3.63987C70.9353 3.26719 71.2502 2.96361 71.6356 2.96361H70.6349C70.2495 2.96361 69.9338 2.65925 69.9338 2.28656C69.9338 1.91388 70.2495 1.6103 70.6349 1.6103H74.8661C73.9272 1.1887 72.8298 0.888995 71.5651 0.731381C60.0271 -0.699573 55.9079 0.246891 54.4549 1.21975C52.6437 2.44747 50.6318 3.29936 48.5248 3.73072C41.4064 5.14925 28.0939 6.85583 16.0279 3.18722C10.0309 1.36029 5.57357 4.44347 2.90234 9.59739H79.7482C79.6479 8.09967 79.3475 6.71607 78.7962 5.50563C78.6657 5.61324 78.5052 5.67118 78.3402 5.67023Z" fill="#D94141"/>
<path opacity="0.1" d="M0.173487 19.3252C-0.137892 22.3565 -0.032045 25.4202 0.487663 28.4187L71.6631 30.9336C73.6224 28.7641 75.287 26.3121 76.6085 23.6491L0.173487 19.3252ZM28.3242 25.8123H26.9228C27.3083 25.8123 27.6239 26.1174 27.6239 26.4893C27.6239 26.8612 27.3083 27.1656 26.9228 27.1656H18.8161C18.4313 27.1656 18.1157 26.8612 18.1157 26.4893C18.1157 26.1174 18.4313 25.8123 18.8161 25.8123H20.2182C19.8328 25.8123 19.5179 25.5079 19.5179 25.136C19.5179 24.7641 19.8328 24.459 20.2182 24.459H19.2168C18.8313 24.459 18.5157 24.1546 18.5157 23.7827C18.5157 23.4108 18.8313 23.1056 19.2168 23.1056H27.3235C27.709 23.1056 28.0239 23.41 28.0239 23.7827C28.0239 24.1554 27.709 24.459 27.3235 24.459H28.3242C28.7097 24.459 29.0246 24.7633 29.0246 25.136C29.0246 25.5087 28.7097 25.8123 28.3242 25.8123Z" fill="#D94141"/>
<path opacity="0.1" d="M79.7514 9.64401L2.04514 11.4686C1.0997 13.8158 0.472804 16.4696 0.184082 19.2197H78.3899C78.8989 17.6107 79.2765 15.9577 79.5186 14.2793C79.7521 12.6635 79.8452 11.1006 79.7514 9.64401ZM15.9612 15.6264H14.5598C14.9453 15.6264 15.2609 15.9315 15.2609 16.3034C15.2609 16.6753 14.9453 16.9805 14.5598 16.9805H6.45306C6.06834 16.9805 5.75271 16.6753 5.75271 16.3034C5.75271 15.9315 6.06834 15.6264 6.45306 15.6264H7.85522C7.46977 15.6264 7.15486 15.322 7.15486 14.9501C7.15486 14.5782 7.46977 14.2731 7.85522 14.2731H6.85378C6.46833 14.2731 6.1527 13.9687 6.1527 13.5968C6.1527 13.2249 6.46833 12.9198 6.85378 12.9198H14.9605C15.346 12.9198 15.6609 13.2241 15.6609 13.5968C15.6609 13.9695 15.346 14.2731 14.9605 14.2731H15.9612C16.3467 14.2731 16.6616 14.5782 16.6616 14.9501C16.6616 15.322 16.3467 15.6264 15.9612 15.6264Z" fill="#D94141"/>
<path opacity="0.1" d="M39.6413 60.6451C57.5945 60.6451 72.1484 59.2157 72.1484 57.4524C72.1484 55.6892 57.5945 54.2598 39.6413 54.2598C21.6882 54.2598 7.13428 55.6892 7.13428 57.4524C7.13428 59.2157 21.6882 60.6451 39.6413 60.6451Z" fill="#D94141"/>
<path d="M72.7726 31.0819C72.7722 31.0765 72.7722 31.071 72.7726 31.0656C72.7726 31.0571 72.7726 31.0493 72.7726 31.0415C72.758 30.9526 72.7266 30.8678 72.6802 30.7923C72.5138 30.5079 72.282 30.2737 72.0068 30.1121C71.5268 29.8311 70.8672 29.7107 70.6752 29.1742C70.6163 29.0081 70.6148 28.8272 70.5857 28.6532C70.5348 28.3823 70.4181 28.1303 70.2471 27.9228C70.0762 27.7152 69.8572 27.5593 69.6119 27.4707C69.3836 27.3892 69.1371 27.3667 68.9152 27.2658C68.4192 27.0406 68.1574 26.4855 67.9356 25.9722C67.6486 25.3097 67.3616 24.6469 67.0746 23.9838C66.8564 24.101 66.5742 24.0459 66.3698 23.8992C66.1729 23.7427 66.0161 23.5357 65.9138 23.2974C65.6179 22.6841 65.4906 21.9892 65.143 21.4053C64.7953 20.8214 64.1008 20.3602 63.487 20.6141C63.3672 20.678 63.2432 20.7328 63.1161 20.7779C62.5903 20.9092 62.0085 20.2678 61.5583 20.5792C61.4835 20.6304 61.4226 20.7016 61.3816 20.7857C61.3812 20.7805 61.3812 20.7753 61.3816 20.7702C61.323 20.8965 61.2903 21.0346 61.2856 21.1755C61.2856 21.2042 61.2856 21.2322 61.2856 21.2593C61.2856 21.264 61.2856 21.2686 61.2856 21.2733C61.2856 21.3851 61.2921 21.4985 61.2936 21.6118C61.2952 21.707 61.2884 21.8022 61.2732 21.896V21.8882C61.2647 21.941 61.2521 21.993 61.2354 22.0435C61.1183 22.3789 60.794 22.5987 60.642 22.9139V22.8984C60.6248 22.9327 60.61 22.9682 60.5976 23.0047C60.5706 23.0874 60.5566 23.1742 60.5561 23.2617C60.5431 23.8541 61.1314 24.4116 61.1998 25.0475C61.2485 25.4978 61.3452 25.6423 61.7038 25.8969L61.7823 25.9528C61.751 25.9528 61.719 25.9575 61.6834 25.9583C61.6695 25.9585 61.6556 25.9601 61.6419 25.9629C61.5787 25.9443 61.5123 25.9409 61.4477 25.953C61.383 25.9651 61.3217 25.9924 61.2681 26.0328C60.9932 26.2657 60.3431 26.0864 60.0543 26.0328C59.7656 25.9792 58.7766 26.1236 58.6384 26.7091C58.5002 27.2945 58.2631 28.5026 58.2631 28.5026C58.2631 28.5026 58.2631 29.2689 58.1751 29.4118C58.1717 29.4218 58.1717 29.4328 58.1751 29.4429C58.1751 29.6579 58.1824 30.9507 57.9875 31.2838C57.9395 31.3614 57.9431 31.533 57.9788 31.7442C57.7737 32.026 57.5809 32.3552 57.6151 32.5711C57.6777 33.0129 58.5169 34.4019 59.7198 33.6581C59.7198 33.6581 60.4041 32.3218 59.5431 31.6114L59.5802 31.4561C59.8405 31.7978 60.0333 32.0431 60.0333 32.0431C60.0333 32.0431 60.0434 32.0718 60.0594 32.1208H60.0333C60.1456 32.4473 60.2137 32.7892 60.2354 33.1363C60.2321 33.2636 60.2106 33.3895 60.1714 33.5098H60.194C60.1874 33.5362 60.1802 33.5626 60.1714 33.5874C60.1292 33.7185 60.0502 33.8326 59.9453 33.9143C59.3438 34.3693 58.6551 37.6186 58.6551 37.6186C58.6551 37.6186 57.2908 42.8712 57.018 43.1701C56.7926 43.4154 58.2093 44.1064 59.2725 44.0241C59.4209 44.0147 59.5676 43.985 59.7089 43.9356C59.7154 44.0133 59.7227 44.0909 59.73 44.1616C59.7525 44.3945 59.7758 44.6103 59.7903 44.6779C59.8282 44.8472 59.9031 46.5755 59.9031 46.5755C59.9031 46.5755 59.7496 47.6982 59.7867 48.4793C59.7867 48.5329 59.7933 48.5841 59.7976 48.6346L59.6653 48.6563C59.4645 49.1377 60.2914 53.1541 60.4042 53.4919C60.4788 53.758 60.5209 54.0333 60.5292 54.311C60.5292 54.311 60.4565 54.5967 60.5169 54.7528C60.5545 54.8482 60.579 54.9489 60.5896 55.0517C60.5896 55.0517 60.5401 55.3111 60.6151 55.4803C60.69 55.6496 60.6027 55.9462 60.6027 55.9462C60.6027 55.9462 60.578 57.1162 60.3525 57.7529C60.2911 57.9242 60.2733 58.1098 60.3007 58.2909C60.3282 58.472 60.4 58.6421 60.5089 58.784C60.5245 58.8061 60.5416 58.8271 60.5598 58.8469C60.5598 58.8469 61.8034 58.8578 62.0223 58.8469H62.0507C62.1387 58.8337 62.3641 57.7809 62.1634 57.2739C61.9627 56.7669 62.1387 56.1426 62.1387 56.1426V55.2202C62.1387 55.2202 62.3641 54.9981 62.1387 54.5214C61.9132 54.0447 61.9503 53.9003 61.9503 53.9003C61.9503 53.9003 62.2012 53.1332 61.9379 52.8863C61.6747 52.6394 61.9881 51.703 61.9881 51.703L62.0768 48.5818C62.0304 48.5656 61.983 48.5527 61.935 48.5429C61.9299 48.4917 61.9248 48.4389 61.9198 48.383C61.8681 47.8178 61.8238 47.0491 61.9387 46.8301C62.0536 46.6112 62.1088 44.6996 62.127 43.3712L63.2732 43.4178C63.2972 44.0389 63.3226 44.6057 63.3386 44.6779C63.3764 44.8472 63.4521 46.5755 63.4521 46.5755C63.4521 46.5755 63.2979 47.6982 63.335 48.4793C63.335 48.5329 63.3415 48.5841 63.3459 48.6346L63.2135 48.6563C63.0128 49.1377 63.8397 53.1541 63.9524 53.4919C64.0272 53.758 64.0694 54.0333 64.0783 54.311C64.0783 54.311 64.0055 54.5967 64.0652 54.7528C64.1028 54.8482 64.1273 54.9489 64.1379 55.0517C64.1379 55.0517 64.0884 55.3111 64.1633 55.4803C64.2382 55.6496 64.151 55.9462 64.151 55.9462C64.151 55.9462 64.1263 57.1162 63.9008 57.7529C63.8404 57.9245 63.8235 58.1101 63.8518 58.2909C63.8802 58.4717 63.9528 58.6412 64.0623 58.7825C64.0779 58.8046 64.0949 58.8256 64.1132 58.8453C64.1132 58.8453 65.3568 58.8562 65.5757 58.8453H65.604C65.692 58.8321 65.9175 57.7793 65.7168 57.2723C65.516 56.7653 65.692 56.141 65.692 56.141V55.2202C65.692 55.2202 65.9175 54.9981 65.692 54.5214C65.4666 54.0447 65.5037 53.9003 65.5037 53.9003C65.5037 53.9003 65.7546 53.1332 65.4913 52.8863C65.228 52.6394 65.5415 51.703 65.5415 51.703L65.6317 48.5818C65.5841 48.5654 65.5355 48.5524 65.4862 48.5429C65.4811 48.4917 65.476 48.4389 65.4709 48.383C65.4193 47.8178 65.375 47.0491 65.4899 46.8301C65.5822 46.6508 65.6353 45.4955 65.6593 44.3673C65.6593 44.2897 65.6593 44.212 65.6651 44.1344C66.1917 44.111 66.7162 44.0482 67.2345 43.9465C67.2345 43.9465 66.6215 41.632 66.8091 41.2554C66.8898 41.0931 66.7735 40.229 66.6142 39.298C66.8363 39.49 67.1124 39.5966 67.3982 39.6008C67.6724 40.1638 68.5065 41.4588 68.9763 41.6584C69.5276 41.8913 69.1138 39.826 68.8512 39.5271C68.727 39.3639 68.6224 39.1847 68.54 38.9937C68.5472 38.9844 68.5552 38.9766 68.5625 38.9681C68.5698 38.9595 68.5756 36.7708 68.4498 36.8104C68.324 36.85 68.1742 36.485 68.1742 36.485L67.7858 32.8459L67.6229 31.3226C67.7589 31.4297 67.9203 31.4981 68.0593 31.6044C68.4374 31.9002 68.5611 32.4197 68.7269 32.8793C68.8636 33.2574 69.0556 33.6325 69.3705 33.87C69.6854 34.1076 70.1472 34.1705 70.4614 33.9298C70.7523 33.7039 70.8381 33.2963 70.9021 32.9244C71.4301 33.1223 72.0708 32.5928 72.0024 32.0144C71.9857 31.8715 71.9363 31.7155 72.0061 31.5905C72.1457 31.3436 72.5879 31.4872 72.7333 31.2434C72.7578 31.2012 72.7704 31.1525 72.7697 31.1029C72.7719 31.092 72.7726 31.0873 72.7726 31.0819ZM65.7102 33.0835C65.7022 33.2225 65.8811 34.339 66.0266 35.2226C65.9073 34.6721 65.668 34.0843 65.1968 33.6814C65.1968 33.6814 65.1968 33.6534 65.191 33.6037H65.1968C65.1968 33.6037 65.1771 33.3817 65.1742 33.0657C65.1751 32.7856 65.1945 32.5059 65.2324 32.2287V32.2217H65.223C65.223 32.1984 65.2288 32.1743 65.2324 32.151C65.2613 31.9171 65.3208 31.6887 65.4091 31.4724C65.4482 31.3877 65.4932 31.3062 65.5437 31.2286C65.6215 31.9794 65.7175 32.943 65.7102 33.0835ZM66.1015 35.6706C66.1655 36.0518 66.2113 36.3197 66.2113 36.3197L66.5975 39.1505V39.1637C66.3895 37.9688 66.124 36.7094 66.124 36.7094C66.1511 36.3633 66.1435 36.015 66.1015 35.6706Z" fill="url(#paint0_linear)"/>
<path d="M61.3686 25.2028C61.2958 24.4854 60.5686 23.8666 60.7868 23.1841C60.9053 22.8122 61.2762 22.5847 61.4013 22.2151C61.4842 21.9713 61.4471 21.7034 61.4478 21.4441C61.4486 21.1848 61.5053 20.8952 61.7075 20.7516C62.1438 20.441 62.7053 21.08 63.2144 20.9495C63.3374 20.9046 63.4573 20.8501 63.5729 20.7865C64.1671 20.5342 64.839 20.9938 65.1729 21.5746C65.5067 22.1553 65.6318 22.8479 65.9183 23.4582C66.0161 23.6938 66.1676 23.8996 66.359 24.0568C66.5568 24.2028 66.8274 24.2579 67.0412 24.1414L67.8739 26.1213C68.0921 26.6314 68.3422 27.1842 68.8193 27.4086C69.0331 27.5088 69.2717 27.5313 69.4928 27.6128C69.7331 27.7033 69.9469 27.8596 70.1128 28.066C70.2787 28.2725 70.3909 28.5218 70.4382 28.7891C70.4666 28.963 70.4673 29.1431 70.5247 29.3085C70.7102 29.8427 71.348 29.9623 71.8127 30.2402C72.0816 30.4021 72.3069 30.6349 72.4672 30.9165C72.54 31.0508 72.6025 31.2271 72.5247 31.3591C72.3843 31.6013 71.9574 31.4584 71.8222 31.7046C71.7538 31.8288 71.8018 31.9841 71.8222 32.1269C71.8884 32.7023 71.268 33.2295 70.7575 33.0323C70.6956 33.4026 70.612 33.8087 70.3313 34.0331C70.0295 34.2738 69.5822 34.2101 69.2775 33.9741C68.9728 33.738 68.7881 33.3646 68.6557 32.988C68.495 32.5299 68.375 32.0128 68.0092 31.7185C67.8768 31.613 67.7183 31.5446 67.5888 31.4383C67.2979 31.2007 67.1524 30.8086 67.0484 30.4289C66.9139 29.9553 66.807 29.4685 66.6121 29.0212C66.4172 28.574 66.1088 28.1579 65.6863 27.9537C65.2899 27.7634 64.8332 27.7759 64.4238 27.6214C63.7191 27.3558 63.1976 26.723 62.4965 26.4249C62.2724 26.3243 62.0601 26.1961 61.8638 26.0429C61.5111 25.7952 61.4151 25.6516 61.3686 25.2028Z" fill="#3F3D56"/>
<g opacity="0.1">
<path opacity="0.1" d="M61.4341 22.0629C61.4491 22.0326 61.4622 22.0012 61.4733 21.969C61.5555 21.7252 61.5191 21.4573 61.5199 21.198C61.5198 21.1115 61.5274 21.0252 61.5424 20.9402C61.4753 21.0936 61.4427 21.2617 61.4472 21.4309C61.4464 21.6398 61.4697 21.8587 61.4341 22.0629Z" fill="black"/>
<path opacity="0.1" d="M70.3994 33.7893C70.0976 34.0292 69.6504 33.9663 69.3456 33.7295C69.0409 33.4927 68.8555 33.1208 68.7268 32.7427C68.566 32.2846 68.4468 31.7675 68.0802 31.4732C67.9486 31.3676 67.7893 31.2985 67.6606 31.1929C67.3697 30.9554 67.2242 30.5633 67.1195 30.1875C66.985 29.7139 66.8788 29.227 66.6832 28.7798C66.4875 28.3326 66.1806 27.9164 65.7574 27.7122C65.3617 27.522 64.905 27.5344 64.4956 27.3799C63.7901 27.1144 63.2687 26.4816 62.5683 26.1834C62.3441 26.0826 62.1316 25.9544 61.9349 25.8014C61.5902 25.5475 61.4985 25.4039 61.4476 24.9559C61.3749 24.2835 60.7349 23.6973 60.8346 23.0637C60.8183 23.098 60.804 23.1333 60.7916 23.1693C60.5735 23.8526 61.3007 24.4714 61.3735 25.1881C61.4207 25.6361 61.5189 25.7797 61.8607 26.0336C62.0574 26.1865 62.2699 26.3147 62.4942 26.4156C63.1945 26.7137 63.7159 27.3473 64.4214 27.6121C64.8308 27.7673 65.2876 27.7541 65.6832 27.9444C66.1064 28.1486 66.4104 28.5655 66.609 29.012C66.8075 29.4584 66.9137 29.9437 67.0453 30.4196C67.1522 30.7954 67.2926 31.1875 67.5864 31.4251C67.718 31.5307 67.8773 31.5998 68.006 31.7054C68.3697 31.9997 68.4918 32.5168 68.6526 32.9748C68.7849 33.3514 68.9704 33.7241 69.2751 33.9601C69.5798 34.1962 70.0271 34.2598 70.3289 34.0199C70.5216 33.8646 70.6198 33.6278 70.6845 33.3739C70.627 33.5377 70.5284 33.6814 70.3994 33.7893Z" fill="black"/>
<path opacity="0.1" d="M71.8939 31.4608C71.8661 31.5165 71.854 31.5796 71.859 31.6425C72.0234 31.4694 72.3943 31.5711 72.5237 31.3482C72.5538 31.2932 72.5656 31.2289 72.5572 31.1658C72.3885 31.3366 72.0176 31.2349 71.8939 31.4608Z" fill="black"/>
<path opacity="0.1" d="M70.8259 32.7885C70.812 32.8661 70.7982 32.9492 70.7808 33.0299C71.2258 33.1782 71.74 32.797 71.8127 32.3156C71.636 32.686 71.1997 32.9337 70.8259 32.7885Z" fill="black"/>
</g>
<path d="M62.3079 25.5763C62.3079 25.5763 62.55 26.098 61.8351 26.1089C61.1202 26.1198 62.2955 29.4972 62.2955 29.4972L63.4838 31.1122L64.9623 30.2581L65.0474 27.9024L65.1565 26.4792C65.1565 26.4792 63.7747 26.0002 64.0293 25.3666C64.2838 24.7331 62.3079 25.5763 62.3079 25.5763Z" fill="#FBBEBE"/>
<path d="M66.5996 39.347C66.5996 39.347 67.4723 40.2639 68.4905 39.0473L67.7087 38.1613H66.7196L66.5996 39.347Z" fill="#575A89"/>
<path opacity="0.1" d="M66.6937 38.1613L66.5737 39.347C66.5737 39.347 67.4464 40.2639 68.4646 39.0473" fill="black"/>
<path d="M68.1623 38.3228C68.1623 38.3228 68.5136 39.3066 68.7681 39.6039C69.0226 39.9013 69.4226 41.9588 68.8895 41.7259C68.3565 41.493 67.3383 39.7592 67.2772 39.4619C67.2161 39.1645 67.1929 38.3228 67.1929 38.3228H68.1623Z" fill="#FBBEBE"/>
<path d="M60.5386 43.3696L65.241 43.5637L64.6955 41.441L62.3269 41.3897L60.5386 43.3696Z" fill="#575A89"/>
<path opacity="0.1" d="M61.1924 43.3696L65.8956 43.5637L65.3501 41.441L62.9807 41.3897L61.1924 43.3696Z" fill="black"/>
<path d="M62.0774 46.8736C61.9661 47.0949 62.009 47.8605 62.0592 48.4265C62.0912 48.7867 62.1261 49.0639 62.1261 49.0639C62.1261 49.0639 60.3683 49.6463 60.1021 49.1416C60.0345 49.0135 60.001 48.7891 59.9894 48.5259C59.953 47.7494 60.1021 46.6306 60.1021 46.6306C60.1021 46.6306 60.0294 44.91 59.993 44.7416C59.9785 44.674 59.9559 44.4597 59.9341 44.2276C59.9021 43.8828 59.8716 43.4993 59.8716 43.4993L62.2715 42.1405C62.2715 42.1405 62.2715 42.3952 62.2672 42.7873C62.2541 44.0187 62.2155 46.6019 62.0774 46.8736Z" fill="#FBBEBE"/>
<path opacity="0.1" d="M62.1259 49.0639C62.1259 49.0639 60.3682 49.6463 60.102 49.1416C60.0343 49.0135 60.0009 48.7891 59.9893 48.5259C60.3529 48.4669 61.4598 48.3038 62.059 48.4265C62.091 48.7867 62.1259 49.0639 62.1259 49.0639Z" fill="black"/>
<path d="M62.1864 58.8469H62.1588C61.9471 58.8554 60.7443 58.8469 60.7443 58.8469C60.7267 58.8272 60.7101 58.8065 60.6948 58.7848C60.5885 58.6427 60.5183 58.4737 60.4909 58.2942C60.4635 58.1147 60.4799 57.9307 60.5384 57.7599C60.7566 57.1256 60.7806 55.9609 60.7806 55.9609C60.7806 55.9609 60.8657 55.6635 60.793 55.4951C60.7203 55.3266 60.7683 55.068 60.7683 55.068C60.7571 54.9658 60.7326 54.8657 60.6955 54.7707C60.6352 54.6154 60.7079 54.3304 60.7079 54.3304C60.6996 54.0543 60.6588 53.7804 60.5864 53.5152C60.4774 53.179 59.6774 49.1804 59.8716 48.7013C59.8716 48.7013 61.5682 48.3908 62.2111 48.6237L62.126 51.7294C62.126 51.7294 61.8228 52.6611 62.0773 52.9072C62.3319 53.1534 62.0897 53.9166 62.0897 53.9166C62.0897 53.9166 62.0533 54.0587 62.2715 54.5377C62.4897 55.0168 62.2715 55.2365 62.2715 55.2365V56.155C62.2715 56.155 62.102 56.7762 62.2955 57.2808C62.4889 57.7855 62.2715 58.8306 62.1864 58.8469Z" fill="#3F3D56"/>
<path d="M65.5168 46.8736C65.4055 47.0949 65.4484 47.8605 65.4986 48.4265C65.5306 48.7867 65.5655 49.0639 65.5655 49.0639C65.5655 49.0639 63.8078 49.6463 63.5416 49.1416C63.4739 49.0135 63.4405 48.7891 63.4289 48.5259C63.3925 47.7494 63.5416 46.6306 63.5416 46.6306C63.5416 46.6306 63.4688 44.91 63.4325 44.7416C63.4129 44.6507 63.3787 43.7842 63.3518 43.007C63.3292 42.344 63.311 41.7446 63.311 41.7446L65.711 42.1405C65.711 42.1405 65.711 43.2671 65.6812 44.4248C65.655 45.5475 65.6063 46.6982 65.5168 46.8736Z" fill="#FBBEBE"/>
<path opacity="0.1" d="M65.5654 49.0639C65.5654 49.0639 63.8076 49.6463 63.5414 49.1416C63.4738 49.0135 63.4403 48.7891 63.4287 48.5259C63.7923 48.4669 64.8992 48.3038 65.4985 48.4265C65.5305 48.7867 65.5654 49.0639 65.5654 49.0639Z" fill="black"/>
<path d="M65.6256 58.8469H65.598C65.3864 58.8554 64.1835 58.8469 64.1835 58.8469C64.1659 58.8272 64.1493 58.8065 64.134 58.7848C64.0277 58.6427 63.9575 58.4737 63.9301 58.2942C63.9027 58.1147 63.9191 57.9307 63.9777 57.7599C64.1958 57.1225 64.2176 55.9578 64.2176 55.9578C64.2176 55.9578 64.3027 55.6604 64.23 55.492C64.1573 55.3235 64.2053 55.0649 64.2053 55.0649C64.1941 54.9627 64.1696 54.8626 64.1326 54.7676C64.0722 54.6123 64.1449 54.3273 64.1449 54.3273C64.1366 54.0512 64.0958 53.7773 64.0235 53.5121C63.9144 53.1759 63.1144 49.1773 63.3086 48.6982C63.3086 48.6982 65.0053 48.3877 65.6482 48.6206L65.5631 51.7263C65.5631 51.7263 65.2598 52.658 65.5144 52.9041C65.7689 53.1503 65.5267 53.9135 65.5267 53.9135C65.5267 53.9135 65.4904 54.0556 65.7085 54.5346C65.9267 55.0137 65.7085 55.2334 65.7085 55.2334V56.1519C65.7085 56.1519 65.5391 56.7731 65.7325 57.2777C65.926 57.7824 65.7107 58.8306 65.6256 58.8469Z" fill="#3F3D56"/>
<path opacity="0.1" d="M63.2535 26.1865C64.1974 26.1865 64.9626 25.3696 64.9626 24.3619C64.9626 23.3542 64.1974 22.5373 63.2535 22.5373C62.3096 22.5373 61.5444 23.3542 61.5444 24.3619C61.5444 25.3696 62.3096 26.1865 63.2535 26.1865Z" fill="black"/>
<path d="M63.2535 26.1089C64.1974 26.1089 64.9626 25.292 64.9626 24.2843C64.9626 23.2766 64.1974 22.4597 63.2535 22.4597C62.3096 22.4597 61.5444 23.2766 61.5444 24.2843C61.5444 25.292 62.3096 26.1089 63.2535 26.1089Z" fill="#FBBEBE"/>
<path opacity="0.1" d="M59.8716 43.4993L62.2715 42.1405C62.2715 42.1405 62.2715 42.3952 62.2672 42.7873C61.9166 43.0109 61.3879 43.3471 60.8796 43.6647C60.6032 43.8378 60.3334 44.0055 60.1021 44.146C60.0484 44.1772 59.9922 44.2032 59.9341 44.2237C59.9021 43.8828 59.8716 43.4993 59.8716 43.4993Z" fill="black"/>
<path opacity="0.1" d="M65.7105 42.1374C65.7105 42.1374 65.7105 43.264 65.6807 44.4217H65.672C65.4927 44.4285 65.3131 44.4225 65.1345 44.4038C64.8211 44.3681 64.5702 44.2796 64.48 44.1041C64.2975 43.7625 63.7862 43.3277 63.3542 43.0039C63.3317 42.3409 63.3135 41.7415 63.3135 41.7415L65.7105 42.1374Z" fill="black"/>
<path d="M65.2643 32.2698C65.2034 32.7752 65.1917 33.286 65.2294 33.794C66.3319 34.7645 66.1261 36.8088 66.1261 36.8088C66.1261 36.8088 66.9748 40.9503 66.793 41.3253C66.6111 41.7003 67.2046 44.004 67.2046 44.004C66.6988 44.1063 66.1866 44.1691 65.6723 44.1919C65.4929 44.1987 65.3134 44.1927 65.1348 44.174C64.8214 44.1383 64.5705 44.0498 64.4803 43.8743C64.1414 43.2407 62.6745 42.2958 62.6745 42.2958C62.6745 42.2958 61.7451 42.8906 60.8796 43.4317C60.6033 43.6049 60.3335 43.7726 60.1022 43.9131C59.9145 44.0194 59.7072 44.0801 59.4949 44.0909C58.4659 44.1724 57.095 43.4845 57.3132 43.2407C57.5801 42.9426 58.9015 37.7149 58.9015 37.7149C58.9015 37.7149 59.5677 34.4795 60.1495 34.0269C60.2515 33.9446 60.3276 33.8311 60.3676 33.7016C60.5669 33.1107 60.2338 32.1635 60.2338 32.1635C60.2338 32.1635 58.3553 29.6921 58.4397 29.5492C58.5241 29.4064 58.5248 28.6439 58.5248 28.6439C58.5248 28.6439 58.7553 27.4405 58.8884 26.8581C59.0215 26.2758 59.9793 26.133 60.2578 26.185C60.5364 26.237 61.1662 26.4179 61.4324 26.185C61.6985 25.952 62.148 26.2758 62.148 26.2758L63.2519 26.6004L64.2447 25.9792C64.2447 25.9792 65.2395 26.0336 65.3246 26.1757C65.4097 26.3177 66.7188 26.5903 66.7188 26.5903C67.3849 27.0686 67.3609 29.3466 67.3609 29.3466C67.3609 29.3466 65.761 30.8342 65.4337 31.5982C65.349 31.8128 65.2919 32.0388 65.2643 32.2698Z" fill="#575A89"/>
<path d="M66.9987 29.0314L67.3623 29.3419L67.7383 32.9523L68.1136 36.5759C68.1136 36.5759 68.2591 36.9385 68.3805 36.8997C68.502 36.8608 68.4896 39.0473 68.4896 39.0473C68.4896 39.0473 67.0976 38.1334 66.5987 39.347L66.2103 36.4206C66.2103 36.4206 65.7129 33.4314 65.7252 33.1984C65.7376 32.9655 65.4707 30.4421 65.4707 30.4421L66.9987 29.0314Z" fill="#575A89"/>
<path d="M58.7078 29.1998L58.4409 29.5492C58.4409 29.5492 58.4656 31.05 58.2591 31.4126C58.0526 31.7752 58.8292 33.8972 59.1201 33.7675C59.411 33.6379 60.0655 30.3256 60.0655 30.2868C60.0655 30.248 58.7078 29.1998 58.7078 29.1998Z" fill="#575A89"/>
<path d="M58.684 31.335C58.684 31.335 57.8353 32.2535 57.8957 32.6938C57.956 33.134 58.7684 34.5168 59.932 33.7738C59.932 33.7738 61.0112 31.6068 58.684 31.335Z" fill="#575A89"/>
<path opacity="0.1" d="M62.1588 58.8492C61.9472 58.8578 60.7443 58.8492 60.7443 58.8492C60.7267 58.8296 60.7102 58.8088 60.6948 58.7871C61.0025 58.6753 61.6672 58.5076 62.1588 58.8492Z" fill="black"/>
<path opacity="0.1" d="M65.5997 58.8492C65.3881 58.8578 64.1852 58.8492 64.1852 58.8492C64.1676 58.8296 64.1511 58.8088 64.1357 58.7871C64.4419 58.6753 65.1066 58.5076 65.5997 58.8492Z" fill="black"/>
<path opacity="0.1" d="M60.9652 36.0898C60.7797 37.989 60.8408 41.7578 60.8794 43.4317C60.603 43.6049 60.3332 43.7726 60.1019 43.9131C59.9142 44.0194 59.7069 44.0801 59.4947 44.0909C59.4176 43.5847 60.4852 38.385 60.9652 36.0898Z" fill="black"/>
<path opacity="0.1" d="M61.1922 35.0122C61.1871 35.0393 61.0991 35.4524 60.9653 36.0898C61.0177 35.5456 61.0904 35.155 61.1922 35.0122Z" fill="black"/>
<path opacity="0.1" d="M64.1451 34.8072C64.1451 34.8072 65.1756 41.7174 62.124 42.5715C62.1233 42.5684 64.2352 42.2259 64.1451 34.8072Z" fill="black"/>
<path opacity="0.1" d="M65.6722 44.1919C65.4929 44.1987 65.3134 44.1927 65.1348 44.174L64.3115 34.7257C64.8366 35.0922 65.465 41.7974 65.6722 44.1919Z" fill="black"/>
<path opacity="0.1" d="M61.9809 23.2113C62.0355 23.2066 62.0905 23.2127 62.1431 23.2291C62.2203 23.2702 62.2898 23.326 62.3482 23.3937C62.443 23.4783 62.5564 23.5359 62.6777 23.561C62.7991 23.5861 62.9244 23.578 63.042 23.5374C63.1249 23.4978 63.2129 23.4716 63.3031 23.4597C63.442 23.4597 63.562 23.5684 63.634 23.6926C63.706 23.8169 63.7431 23.9644 63.8049 24.0972C63.8667 24.2299 63.9656 24.3557 64.1016 24.3883C64.1668 24.391 64.231 24.4068 64.2907 24.4349C64.3273 24.4667 64.3554 24.5082 64.3721 24.5553C64.4856 24.8169 64.5758 25.1259 64.8179 25.254C64.907 25.2981 65.0041 25.3207 65.1023 25.32C65.2021 25.3279 65.3022 25.3086 65.3932 25.2641C65.4827 25.2108 65.5567 25.132 65.607 25.0366C65.7583 24.7696 65.7757 24.4388 65.7401 24.129C65.6957 23.7382 65.5654 23.3641 65.3598 23.0373C65.1432 22.7068 64.8483 22.4436 64.5052 22.2746C64.1621 22.1056 63.7832 22.0368 63.4071 22.0754C63.2758 22.0911 63.1457 22.1171 63.018 22.153C62.5555 22.285 62.1016 22.5319 61.8209 22.9457C61.753 23.049 61.6784 23.1471 61.5977 23.2392C61.7249 23.226 61.8529 23.2144 61.9809 23.2113Z" fill="black"/>
<path d="M61.9809 23.1336C62.0355 23.129 62.0905 23.135 62.1431 23.1515C62.2203 23.1925 62.2898 23.2483 62.3482 23.3161C62.443 23.4007 62.5564 23.4583 62.6777 23.4834C62.7991 23.5085 62.9244 23.5004 63.042 23.4597C63.1249 23.4201 63.2129 23.394 63.3031 23.3821C63.442 23.3821 63.562 23.4908 63.634 23.615C63.706 23.7392 63.7431 23.8868 63.8049 24.0195C63.8667 24.1523 63.9656 24.2781 64.1016 24.3107C64.1668 24.3134 64.231 24.3292 64.2907 24.3573C64.3273 24.389 64.3554 24.4305 64.3721 24.4776C64.4856 24.7393 64.5758 25.0483 64.8179 25.1764C64.907 25.2205 65.0041 25.243 65.1023 25.2424C65.2021 25.2502 65.3022 25.231 65.3932 25.1865C65.4827 25.1331 65.5567 25.0544 65.607 24.959C65.7583 24.6919 65.7757 24.3611 65.7401 24.0514C65.6957 23.6605 65.5654 23.2865 65.3598 22.9597C65.1432 22.6292 64.8483 22.366 64.5052 22.197C64.1621 22.028 63.7832 21.9592 63.4071 21.9977C63.2758 22.0135 63.1457 22.0394 63.018 22.0753C62.5555 22.2073 62.1016 22.4542 61.8209 22.8681C61.753 22.9714 61.6784 23.0695 61.5977 23.1616C61.7249 23.1484 61.8529 23.1367 61.9809 23.1336Z" fill="#3F3D56"/>
<path opacity="0.1" d="M60.1263 27.4785C60.1263 27.4785 60.2114 28.2037 59.9205 28.3846C59.6296 28.5655 60.1263 27.4785 60.1263 27.4785Z" fill="black"/>
<path opacity="0.1" d="M66.2954 33.0952C66.2954 33.0952 66.9863 32.0082 67.0837 32.3187C67.1812 32.6293 66.2954 33.0952 66.2954 33.0952Z" fill="black"/>
<path opacity="0.1" d="M66.3442 33.457C66.3442 33.457 67.0257 32.5641 67.0911 32.9135C67.1566 33.2629 66.3442 33.457 66.3442 33.457Z" fill="black"/>
<path opacity="0.1" d="M64.3429 32.394C64.0958 32.3978 63.8546 32.313 63.6578 32.1533H63.5982C63.3941 32.3524 63.1262 32.46 62.8498 32.4538C62.7062 32.4574 62.5633 32.4298 62.4299 32.3726C62.2965 32.3155 62.1754 32.2301 62.0739 32.1215H61.9946C61.7852 32.3036 61.5222 32.4006 61.2522 32.3953C60.9822 32.3901 60.7227 32.2829 60.5197 32.0928L60.2354 32.0873C60.2354 32.0873 60.5684 33.0346 60.3692 33.6255L65.2294 33.7179C65.1918 33.2099 65.2035 32.6991 65.2644 32.1937V32.1867L64.9974 32.1813C64.8054 32.3235 64.5765 32.3979 64.3429 32.394Z" fill="black"/>
<path opacity="0.1" d="M64.3429 32.5493C64.0958 32.5531 63.8546 32.4683 63.6578 32.3086H63.5982C63.3941 32.5077 63.1262 32.6153 62.8498 32.6091C62.7062 32.6127 62.5633 32.5851 62.4299 32.5279C62.2965 32.4708 62.1754 32.3854 62.0739 32.2768H61.9946C61.7852 32.4589 61.5222 32.5559 61.2522 32.5506C60.9822 32.5454 60.7227 32.4382 60.5197 32.2481L60.2354 32.2427C60.2354 32.2427 60.5684 33.1899 60.3692 33.7808L65.2294 33.8731C65.1918 33.3652 65.2035 32.8544 65.2644 32.349V32.342L64.9974 32.3366C64.8054 32.4788 64.5765 32.5532 64.3429 32.5493Z" fill="black"/>
<path d="M64.3429 32.4717C64.0958 32.4754 63.8546 32.3907 63.6578 32.231H63.5982C63.3941 32.43 63.1262 32.5376 62.8498 32.5315C62.7062 32.535 62.5633 32.5074 62.4299 32.4503C62.2965 32.3932 62.1754 32.3077 62.0739 32.1992H61.9946C61.7852 32.3812 61.5222 32.4782 61.2522 32.473C60.9822 32.4677 60.7227 32.3605 60.5197 32.1704L60.2354 32.165C60.2354 32.165 60.5684 33.1123 60.3692 33.7031L65.2294 33.7955C65.1918 33.2876 65.2035 32.7768 65.2644 32.2714V32.2644L64.9974 32.259C64.8054 32.4011 64.5765 32.4755 64.3429 32.4717Z" fill="#3F3D56"/>
<path opacity="0.1" d="M64.127 27.2945C64.127 27.2945 65.1502 27.3644 65.1568 27.5197C65.1633 27.6749 64.127 27.2945 64.127 27.2945Z" fill="black"/>
<path opacity="0.1" d="M61.6412 26.6322C61.6412 26.6322 60.6179 26.7021 60.6114 26.8574C60.6048 27.0126 61.6412 26.6322 61.6412 26.6322Z" fill="black"/>
<path opacity="0.1" d="M65.5515 29.807C65.5413 29.7992 65.5311 29.793 65.5209 29.786C65.7828 30.0376 65.7391 30.5873 65.4177 31.0408C65.0962 31.4942 64.6082 31.6829 64.3115 31.4795C64.321 31.488 64.329 31.4973 64.3392 31.5059C64.6301 31.7434 65.1391 31.5571 65.4751 31.0881C65.8111 30.6192 65.8439 30.0454 65.5515 29.807Z" fill="black"/>
<path opacity="0.1" d="M59.9309 30.9825C59.672 30.484 59.7054 29.9336 59.9985 29.7247C59.9876 29.7301 59.976 29.7348 59.9651 29.741C59.6436 29.932 59.6014 30.5042 59.8676 31.0198C60.1338 31.5353 60.6138 31.7962 60.9352 31.6083C60.9458 31.6018 60.956 31.5945 60.9657 31.5865C60.645 31.7418 60.1898 31.481 59.9309 30.9825Z" fill="black"/>
<path opacity="0.1" d="M60.2765 26.7789L60.1827 26.9342L59.9434 26.7984L60.0692 26.5918C60.1524 26.6338 60.2239 26.6983 60.2765 26.7789Z" fill="black"/>
<path d="M58.7569 32.5253C58.7569 32.5253 58.97 31.4554 58.6842 31.1153C58.3983 30.7752 58.49 28.9925 58.9263 29.0314C59.3627 29.0702 60.0172 30.4802 59.9081 30.7783C59.799 31.0765 59.3867 32.6029 59.3867 32.6029L58.7569 32.5253Z" fill="#FBBEBE"/>
<path opacity="0.1" d="M65.5995 24.806C65.5492 24.9014 65.4752 24.9802 65.3857 25.0335C65.2947 25.078 65.1947 25.0973 65.0948 25.0894C64.9966 25.0901 64.8995 25.0675 64.8105 25.0234C64.5683 24.8946 64.4781 24.5855 64.3647 24.3247C64.3503 24.2776 64.3247 24.2353 64.2905 24.202C64.2316 24.1734 64.1682 24.1568 64.1036 24.1531C63.9676 24.1205 63.8694 23.9939 63.8068 23.8619C63.7443 23.7299 63.7072 23.5839 63.6359 23.4574C63.5647 23.3308 63.4439 23.2198 63.305 23.2245C63.2146 23.2373 63.1266 23.2647 63.0439 23.306C62.9263 23.3463 62.801 23.3542 62.6797 23.329C62.5584 23.3037 62.445 23.2461 62.3501 23.1616C62.2917 23.0938 62.2222 23.038 62.1451 22.997C62.0925 22.9805 62.0375 22.9745 61.9829 22.9791C61.8992 22.9791 61.8163 22.9877 61.7327 22.9946C61.6913 23.0526 61.6468 23.1081 61.5996 23.1608C61.7269 23.1491 61.8549 23.1375 61.9829 23.1344C62.0375 23.1298 62.0925 23.1358 62.1451 23.1523C62.2222 23.1933 62.2917 23.2491 62.3501 23.3169C62.445 23.4014 62.5584 23.459 62.6797 23.4842C62.801 23.5095 62.9263 23.5016 63.0439 23.4613C63.1266 23.42 63.2146 23.3925 63.305 23.3797C63.4439 23.3797 63.5639 23.4884 63.6359 23.6127C63.7079 23.7369 63.745 23.8844 63.8068 24.0172C63.8687 24.15 63.9676 24.2757 64.1036 24.3084C64.1682 24.3121 64.2316 24.3287 64.2905 24.3573C64.3271 24.389 64.3552 24.4305 64.3719 24.4776C64.4854 24.7393 64.5756 25.0483 64.8177 25.1764C64.9068 25.2205 65.0039 25.243 65.1021 25.2424C65.2019 25.2502 65.302 25.231 65.393 25.1865C65.4825 25.1331 65.5565 25.0544 65.6068 24.959C65.7197 24.7395 65.7703 24.4897 65.7523 24.24C65.7467 24.4394 65.6942 24.6341 65.5995 24.806Z" fill="black"/>
<path d="M59.0789 33.3739C59.4403 33.3739 59.7334 33.1619 59.7334 32.9003C59.7334 32.6387 59.4403 32.4267 59.0789 32.4267C58.7174 32.4267 58.4243 32.6387 58.4243 32.9003C58.4243 33.1619 58.7174 33.3739 59.0789 33.3739Z" fill="#575A89"/>
<path d="M37.7441 59.2638C50.1351 59.2638 60.18 48.5398 60.18 35.3111C60.18 22.0824 50.1351 11.3584 37.7441 11.3584C25.353 11.3584 15.3081 22.0824 15.3081 35.3111C15.3081 48.5398 25.353 59.2638 37.7441 59.2638Z" fill="#D94141"/>
<path d="M49.516 47.348C49.516 51.1292 43.9481 47.671 37.9787 47.671C32.0094 47.671 25.9717 50.9864 25.9717 47.2052C25.9717 45.049 27.896 42.0505 30.6567 39.8726C32.7366 38.2313 35.2908 37.0557 37.8566 37.0557C40.4951 37.0557 43.0797 38.3283 45.1415 40.0753C47.7437 42.278 49.516 45.2377 49.516 47.348Z" fill="#444053"/>
<path d="M45.1408 40.0737C41.9678 39.5636 36.229 38.9417 30.6567 39.871C32.7367 38.2297 35.2908 37.0542 37.8566 37.0542C40.4944 37.0542 43.079 38.3267 45.1408 40.0737Z" fill="#F6F8FB"/>
<path opacity="0.05" d="M25.972 18.4028C25.972 18.4028 19.2136 23.0156 19.2689 30.2309C19.3242 37.4463 25.972 18.4028 25.972 18.4028Z" fill="black"/>
<path d="M60.171 5.37521C60.171 5.37521 54.0475 4.98156 54.7696 9.56247C54.7696 9.56247 54.6242 10.3715 55.3136 10.7395C55.3136 10.7395 55.3245 10.4002 55.9413 10.5151C56.161 10.5544 56.3844 10.5659 56.6067 10.5493C56.9071 10.5275 57.1926 10.4015 57.4198 10.1906C57.4198 10.1906 59.1412 9.43203 59.811 6.42805C59.811 6.42805 60.3063 5.77274 60.2866 5.60503L59.2532 6.07555C59.2532 6.07555 59.6059 6.87138 59.3259 7.5329C59.3259 7.5329 59.2925 6.10505 59.0939 6.13533C59.0539 6.14232 58.5572 6.41096 58.5572 6.41096C58.5572 6.41096 59.1645 7.79766 58.7027 8.80468C58.7027 8.80468 58.8765 7.09655 58.3638 6.51112L57.6365 6.96456C57.6365 6.96456 58.3463 8.39628 57.8649 9.5648C57.8649 9.5648 57.9885 7.77281 57.4838 7.07481L56.8242 7.62374C56.8242 7.62374 57.491 9.03528 57.0845 10.0043C57.0845 10.0043 57.0314 7.91801 56.6816 7.76039C56.6816 7.76039 56.1049 8.30389 56.0169 8.52672C56.0169 8.52672 56.4736 9.55083 56.1907 10.0912C56.1907 10.0912 56.0169 8.70142 55.8744 8.69365C55.8744 8.69365 55.2998 9.61449 55.2395 10.2465C55.2395 10.2465 55.2649 9.30703 55.7347 8.60592C55.7347 8.60592 55.1791 8.70763 54.8555 9.09274C54.8555 9.09274 54.9449 8.44132 55.8736 8.38464C55.8736 8.38464 56.3485 7.68585 56.4758 7.64393C56.4758 7.64393 55.5485 7.56085 54.9864 7.82716C54.9864 7.82716 55.4809 7.21301 56.6452 7.49175L57.2998 6.92496C57.2998 6.92496 56.0794 6.74638 55.5616 6.94359C55.5616 6.94359 56.1573 6.40009 57.475 6.79607L58.1841 6.34341C58.1841 6.34341 57.1434 6.10428 56.5231 6.18813C56.5231 6.18813 57.1776 5.81156 58.3914 6.21996L58.9005 5.97694C58.9005 5.97694 58.1376 5.817 57.9143 5.79215C57.691 5.76731 57.6794 5.70053 57.6794 5.70053C58.1639 5.61644 58.6607 5.678 59.1143 5.87834C59.1143 5.87834 60.1892 5.44742 60.171 5.37521Z" fill="#D94141"/>
<path d="M53.8903 3.33863C53.8903 3.33863 51.1267 3.16005 51.4496 5.23C51.4496 5.23 51.3849 5.5957 51.6954 5.76186C51.6954 5.76186 51.6998 5.60657 51.979 5.66092C52.0783 5.67836 52.179 5.68357 52.2794 5.67645C52.4152 5.6661 52.5443 5.60918 52.6474 5.51418C52.6474 5.51418 53.4248 5.171 53.7274 3.8138C53.7274 3.8138 53.9514 3.51798 53.9455 3.44189L53.4786 3.65463C53.4786 3.65463 53.6386 4.01412 53.5128 4.31304C53.5128 4.31304 53.4976 3.66783 53.4081 3.68336C53.3899 3.68336 53.1652 3.80759 53.1652 3.80759C53.1652 3.80759 53.4401 4.43417 53.2328 4.88915C53.2328 4.88915 53.3114 4.11739 53.0801 3.85262L52.7514 4.0576C52.7514 4.0576 53.0721 4.70514 52.8547 5.23311C52.8547 5.23311 52.9099 4.4233 52.6823 4.10807L52.3841 4.35575C52.3841 4.35575 52.6852 4.99319 52.5019 5.4311C52.5019 5.4311 52.4779 4.48852 52.3194 4.41709C52.3194 4.41709 52.059 4.66244 52.019 4.76337C52.019 4.76337 52.2256 5.22923 52.0976 5.4707C52.0976 5.4707 52.019 4.84257 51.9521 4.84024C51.9521 4.84024 51.6925 5.25563 51.6656 5.53902C51.6781 5.27529 51.7551 5.01965 51.8888 4.79753C51.7392 4.82776 51.6012 4.90415 51.4918 5.01726C51.4918 5.01726 51.5318 4.723 51.9528 4.69738C51.9528 4.69738 52.1674 4.38215 52.2248 4.36274C52.2248 4.36274 51.8059 4.32547 51.5521 4.44581C51.5521 4.44581 51.7754 4.16785 52.3019 4.29053L52.5928 4.03508C52.5928 4.03508 52.0416 3.95744 51.8074 4.04285C51.8074 4.04285 52.0765 3.7975 52.6721 3.97685L52.9921 3.77188C52.9921 3.77188 52.5223 3.66395 52.2416 3.70277C52.2416 3.70277 52.5376 3.53274 53.0859 3.71753L53.315 3.60727C53.315 3.60727 52.9703 3.53507 52.8699 3.5242C52.7696 3.51333 52.763 3.48304 52.763 3.48304C52.9813 3.44427 53.2055 3.47116 53.4103 3.56069C53.4103 3.56069 53.8983 3.37124 53.8903 3.33863Z" fill="#D94141"/>
<path opacity="0.1" d="M78.0415 56.6799C79.1232 56.6799 80 56.5217 80 56.3266C80 56.1315 79.1232 55.9733 78.0415 55.9733C76.9599 55.9733 76.083 56.1315 76.083 56.3266C76.083 56.5217 76.9599 56.6799 78.0415 56.6799Z" fill="#D94141"/>
<path opacity="0.1" d="M3.40138 62.5567C4.48303 62.5567 5.35989 62.3985 5.35989 62.2034C5.35989 62.0083 4.48303 61.8501 3.40138 61.8501C2.31973 61.8501 1.44287 62.0083 1.44287 62.2034C1.44287 62.3985 2.31973 62.5567 3.40138 62.5567Z" fill="#D94141"/>
<path opacity="0.1" d="M14.7705 63C15.8522 63 16.729 62.8418 16.729 62.6467C16.729 62.4516 15.8522 62.2935 14.7705 62.2935C13.6889 62.2935 12.812 62.4516 12.812 62.6467C12.812 62.8418 13.6889 63 14.7705 63Z" fill="#D94141"/>
<path d="M73.7549 60.6404C75.37 60.6404 76.6792 60.4041 76.6792 60.1125C76.6792 59.8209 75.37 59.5845 73.7549 59.5845C72.1398 59.5845 70.8306 59.8209 70.8306 60.1125C70.8306 60.4041 72.1398 60.6404 73.7549 60.6404Z" fill="#D94141"/>
<path d="M74.9636 59.2499C75.097 59.1336 75.1944 58.9768 75.2428 58.8003C75.2785 58.6225 75.2072 58.4082 75.0479 58.343C74.869 58.27 74.6777 58.4028 74.533 58.5363C74.3883 58.6699 74.2217 58.8221 74.0319 58.7941C74.1295 58.6997 74.2026 58.58 74.2439 58.4465C74.2852 58.313 74.2933 58.1703 74.2676 58.0324C74.2593 57.9753 74.2367 57.9216 74.2021 57.8771C74.1025 57.7638 73.9228 57.8119 73.8036 57.9012C73.4254 58.1854 73.3199 58.7335 73.3178 59.2273C73.2799 59.0495 73.3119 58.864 73.3112 58.6838C73.3105 58.5037 73.2632 58.2956 73.1192 58.2001C73.0299 58.1492 72.9296 58.124 72.8283 58.1272C72.6581 58.1202 72.469 58.138 72.3527 58.2708C72.2072 58.4362 72.2458 58.7126 72.3716 58.8919C72.4974 59.0713 72.6879 59.1878 72.8632 59.3128C73.0043 59.4023 73.1246 59.5246 73.2152 59.6707C73.2258 59.6912 73.2346 59.7128 73.2414 59.7351H74.3068C74.5452 59.6057 74.7662 59.4425 74.9636 59.2499Z" fill="#D94141"/>
<path d="M4.31544 52.7395C4.31544 52.7395 4.71471 53.297 4.13072 54.1371C3.54673 54.9772 3.06528 55.69 3.25801 56.2148C3.25801 56.2148 4.13872 54.6511 4.85798 54.6286C5.57724 54.6061 5.10379 53.6798 4.31544 52.7395Z" fill="#D94141"/>
<path opacity="0.1" d="M4.31584 52.7395C4.35051 52.7934 4.37793 52.8522 4.39729 52.9142C5.09691 53.7916 5.46927 54.6107 4.79728 54.6309C4.17039 54.6503 3.41549 55.846 3.23877 56.148C3.24495 56.1715 3.25223 56.1945 3.26059 56.2172C3.26059 56.2172 4.1413 54.6534 4.86056 54.6309C5.57981 54.6084 5.10419 53.6798 4.31584 52.7395Z" fill="black"/>
<path d="M5.05818 53.45C5.05818 53.6464 5.03709 53.8056 5.01164 53.8056C4.98618 53.8056 4.96582 53.6503 4.96582 53.45C4.96582 53.2496 4.99127 53.3459 5.01746 53.3459C5.04364 53.3459 5.05818 53.2535 5.05818 53.45Z" fill="#FFD037"/>
<path d="M5.30967 53.6844C5.14822 53.7784 5.00786 53.8351 4.9955 53.811C4.98313 53.7869 5.10458 53.6922 5.26603 53.5983C5.42748 53.5043 5.36348 53.5726 5.37585 53.5983C5.38821 53.6239 5.47403 53.5905 5.30967 53.6844Z" fill="#FFD037"/>
<path d="M2.20512 52.7395C2.20512 52.7395 1.80586 53.297 2.38912 54.1371C2.97238 54.9772 3.45455 55.69 3.26183 56.2148C3.26183 56.2148 2.38039 54.6511 1.66186 54.6286C0.943327 54.6061 1.41605 53.6798 2.20512 52.7395Z" fill="#D94141"/>
<path opacity="0.1" d="M2.2052 52.7395C2.17021 52.7932 2.14277 52.8521 2.12375 52.9142C1.42412 53.7916 1.05104 54.6107 1.72375 54.6309C2.34993 54.6503 3.10555 55.846 3.28155 56.148C3.27561 56.1714 3.26857 56.1945 3.26045 56.2172C3.26045 56.2172 2.37902 54.6534 1.66048 54.6309C0.941949 54.6084 1.41612 53.6798 2.2052 52.7395Z" fill="black"/>
<path d="M1.4624 53.45C1.4624 53.6464 1.48277 53.8056 1.50822 53.8056C1.53367 53.8056 1.55404 53.6503 1.55404 53.45C1.55404 53.2496 1.52858 53.3459 1.50313 53.3459C1.47768 53.3459 1.4624 53.2535 1.4624 53.45Z" fill="#FFD037"/>
<path d="M1.2072 53.6844C1.36865 53.7784 1.50974 53.8351 1.5221 53.811C1.53446 53.7869 1.41301 53.6922 1.25156 53.5983C1.09011 53.5043 1.15338 53.5726 1.14174 53.5983C1.13011 53.6239 1.04575 53.5905 1.2072 53.6844Z" fill="#FFD037"/>
<path d="M1.58984 56.1442C1.58984 56.1442 2.70691 56.1077 3.04436 55.8515C3.38181 55.5952 4.76288 55.2901 4.84651 55.6962C4.93015 56.1022 6.52503 57.7382 5.26396 57.749C4.00289 57.7599 2.33383 57.5386 1.99784 57.3204C1.66184 57.1023 1.58984 56.1442 1.58984 56.1442Z" fill="#A8A8A8"/>
<path opacity="0.2" d="M5.28505 57.6101C4.02398 57.6209 2.35492 57.3996 2.01893 57.1815C1.76293 57.0153 1.66112 56.4182 1.62693 56.1426H1.58984C1.58984 56.1426 1.66257 57.1046 1.99638 57.3228C2.33019 57.541 4.00144 57.7622 5.26251 57.7514C5.62614 57.7514 5.75195 57.6093 5.74541 57.4051C5.6945 57.5301 5.55632 57.6077 5.28505 57.6101Z" fill="black"/>
<path d="M29.7675 32.1704C30.1944 32.1448 32.2038 31.9833 33.4801 31.2061C33.6851 31.0774 33.9167 31.0046 34.1543 30.9942C34.5601 30.9817 35.027 31.1626 34.7281 32.1751C34.2438 33.8312 31.4314 35.6946 29.686 35.5914C28.0075 35.492 26.0163 34.7699 24.7014 32.231C24.5754 31.9867 24.5133 31.7108 24.5217 31.4321C24.537 30.9196 24.7116 30.2775 25.6126 30.9934C26.8301 31.96 29.1398 32.1433 29.6031 32.1704C29.6579 32.1736 29.7127 32.1736 29.7675 32.1704Z" fill="#444053"/>
<path d="M45.913 32.1704C46.3399 32.1448 48.3493 31.9833 49.6256 31.2061C49.8306 31.0774 50.0622 31.0046 50.2998 30.9942C50.7056 30.9817 51.1725 31.1626 50.8736 32.1751C50.3893 33.8312 47.5769 35.6946 45.8315 35.5914C44.153 35.492 42.1618 34.7699 40.8469 32.231C40.7209 31.9867 40.6589 31.7108 40.6673 31.4321C40.6825 30.9196 40.8571 30.2775 41.7581 30.9934C42.9756 31.96 45.2854 32.1433 45.7486 32.1704C45.8034 32.1736 45.8582 32.1736 45.913 32.1704Z" fill="#444053"/>
</g>
<defs>
<linearGradient id="paint0_linear" x1="64.8819" y1="58.8523" x2="64.8819" y2="20.4938" gradientUnits="userSpaceOnUse">
<stop stop-color="#808080" stop-opacity="0.25"/>
<stop offset="0.54" stop-color="#808080" stop-opacity="0.12"/>
<stop offset="1" stop-color="#808080" stop-opacity="0.1"/>
</linearGradient>
<clipPath id="clip0">
<rect width="80" height="63" fill="white"/>
</clipPath>
</defs>
</svg>
