<svg width="95" height="28" viewBox="0 0 95 28" fill="none" xmlns="http://www.w3.org/2000/svg">
<path d="M0.395508 26.9546V0.634644H5.14766V16.9866L9.78667 10.6026H15.444L9.71124 18.5173L16.0097 26.992H10.3147L5.14766 19.9733V26.9546H0.395508Z" fill="#D94141"/>
<path d="M23.7036 10.192C25.4008 10.192 26.9471 10.7147 28.2672 11.7227V10.64H32.9816V26.992H28.2672V25.872C26.9471 26.88 25.4385 27.4027 23.7036 27.4027C21.4784 27.4027 19.6303 26.5814 18.1217 24.976C16.6131 23.3707 15.8965 21.3174 15.8965 18.8534C15.8965 16.3894 16.6508 14.336 18.1217 12.7307C19.668 11.0133 21.5161 10.192 23.7036 10.192ZM20.8749 18.7414C20.8749 19.8614 21.2144 20.7947 21.931 21.5414C22.6476 22.288 23.515 22.6987 24.5333 22.6987C25.5517 22.6987 26.4191 22.3254 27.1357 21.5414C27.8523 20.7947 28.1917 19.824 28.1917 18.7414C28.1917 17.6587 27.8523 16.7254 27.1357 15.9787C26.4191 15.232 25.5517 14.8214 24.5333 14.8214C23.515 14.8214 22.6476 15.1947 21.931 15.9787C21.2144 16.7254 20.8749 17.6587 20.8749 18.7414Z" fill="#D94141"/>
<path d="M44.1833 26.9546H39.8083L34.6035 10.6399H39.3934L41.958 19.7492L44.5604 10.6399H48.9354L51.5378 19.6746L54.0647 10.6399H58.8546L53.6876 26.9546H49.3126L46.7856 18.4052L44.1833 26.9546Z" fill="#D94141"/>
<path d="M76.3545 20.496H64.0593C64.3233 21.3547 64.8136 22.064 65.5679 22.5867C66.2845 23.1094 67.1519 23.3707 68.0948 23.3707C69.4149 23.3707 70.5086 22.8854 71.3761 21.8774L75.9774 22.9227C75.2608 24.304 74.167 25.3867 72.7715 26.1707C71.3761 26.9547 69.792 27.3654 68.0571 27.3654C65.4925 27.3654 63.3427 26.544 61.6455 24.9387C59.9483 23.3334 59.0808 21.28 59.0808 18.816C59.0808 16.3894 59.9105 14.336 61.57 12.6934C63.2672 11.0507 65.3416 10.2294 67.7931 10.2294C70.2446 10.2294 72.319 11.0507 73.9784 12.6934C75.6756 14.336 76.5054 16.3894 76.5054 18.816C76.4677 19.5254 76.43 20.0854 76.3545 20.496ZM64.0593 16.9867H71.6401C71.3761 16.1654 70.8858 15.4934 70.1692 15.008C69.4526 14.4854 68.6606 14.2614 67.7931 14.2614C66.9634 14.2614 66.209 14.5227 65.4925 15.008C64.7759 15.4934 64.3233 16.1654 64.0593 16.9867Z" fill="#D94141"/>
<path d="M78.5798 26.9547V10.64H83.332V12.2827C84.4635 10.9014 85.9721 10.2294 87.8579 10.2294C89.6305 10.2294 91.1014 10.8267 92.346 12.0587C93.5529 13.2534 94.1941 14.7467 94.1941 16.5387V27.0294H89.4419V17.696C89.4419 16.8 89.1402 16.0534 88.5744 15.456C88.0087 14.8587 87.2921 14.56 86.4247 14.56C85.5572 14.56 84.8406 14.8587 84.2749 15.456C83.6714 16.0534 83.4074 16.8 83.4074 17.696V26.9547H78.5798Z" fill="#D94141"/>
</svg>
