<svg width="4" height="16" viewBox="0 0 4 16" fill="none" xmlns="http://www.w3.org/2000/svg">
<path opacity="0.7" d="M0.585785 0.585794C1.36683 -0.195251 2.63317 -0.195251 3.41421 0.585794C4.19526 1.36684 4.19526 2.63317 3.41421 3.41422C2.63317 4.19526 1.36683 4.19526 0.585785 3.41422C-0.195262 2.63317 -0.195262 1.36684 0.585785 0.585794Z" fill="#0B1726"/>
<path opacity="0.7" d="M0.585785 6.58579C1.36683 5.80475 2.63317 5.80475 3.41421 6.58579C4.19526 7.36684 4.19526 8.63317 3.41421 9.41422C2.63317 10.1953 1.36683 10.1953 0.585785 9.41422C-0.195262 8.63317 -0.195262 7.36684 0.585785 6.58579Z" fill="#0B1726"/>
<path opacity="0.7" d="M0.585785 12.5857C1.36683 11.8047 2.63317 11.8047 3.41421 12.5857C4.19526 13.3668 4.19526 14.6331 3.41421 15.4142C2.63317 16.1952 1.36683 16.1952 0.585785 15.4142C-0.195262 14.6331 -0.195262 13.3668 0.585785 12.5857Z" fill="#0B1726"/>
</svg>
