<svg width="16" height="16" viewBox="0 0 16 16" fill="none" xmlns="http://www.w3.org/2000/svg">
<g opacity="0.6" clip-path="url(#clip0)">
<path d="M13.1427 8.00006C12.8271 8.00006 12.5712 8.25589 12.5712 8.57149V14.2857C12.5712 14.6013 12.3154 14.8571 11.9998 14.8571H1.71426C1.39866 14.8571 1.14283 14.6013 1.14283 14.2857V2.85727C1.14283 2.54167 1.39866 2.28584 1.71426 2.28584H8.57131C8.88691 2.28584 9.14275 2.03 9.14275 1.7144C9.14275 1.39881 8.88691 1.14301 8.57131 1.14301H1.71426C0.767501 1.14301 0 1.91051 0 2.85727V14.2857C0 15.2324 0.767501 15.9999 1.71426 15.9999H11.9998C12.9466 15.9999 13.7141 15.2324 13.7141 14.2857V8.57146C13.7141 8.25589 13.4583 8.00006 13.1427 8.00006Z" fill="#0B1726"/>
<path d="M15.3603 0.640843C14.9501 0.230491 14.3936 3.1122e-06 13.8133 7.00756e-05C13.2327 -0.00160401 12.6756 0.229286 12.2665 0.641211L4.73967 8.16736C4.67723 8.23027 4.63012 8.30675 4.60196 8.39079L3.45913 11.8193C3.35939 12.1187 3.52127 12.4423 3.8207 12.542C3.87879 12.5614 3.93963 12.5712 4.00083 12.5713C4.06217 12.5712 4.12314 12.5614 4.1814 12.5422L7.60992 11.3994C7.69413 11.3712 7.77064 11.3239 7.83335 11.2611L15.3601 3.73432C16.2144 2.88013 16.2145 1.49513 15.3603 0.640843Z" fill="#0B1726"/>
</g>
<defs>
<clipPath id="clip0">
<rect width="16" height="16" fill="white"/>
</clipPath>
</defs>
</svg>
