<svg width="24" height="24" viewBox="0 0 24 24" fill="none" xmlns="http://www.w3.org/2000/svg">
<g opacity="0.7">
<path d="M21.4286 3.42859H2.57143C1.15127 3.42859 0 4.57986 0 6.00002V18C0 19.4202 1.15127 20.5714 2.57143 20.5714H21.4286C22.8487 20.5714 24 19.4202 24 18V6.00002C24 4.57986 22.8487 3.42859 21.4286 3.42859ZM22.2857 13.3594L16.8917 7.96545C16.557 7.63081 16.0144 7.63081 15.6797 7.96545L8.57144 15.0737L5.74885 12.2511C5.41416 11.9165 4.87155 11.9165 4.53686 12.2511L1.71427 15.0737V6.00002C1.71427 5.52661 2.09802 5.14286 2.57143 5.14286H21.4286C21.902 5.14286 22.2857 5.52661 22.2857 6.00002V13.3594H22.2857Z" fill="#0B1726"/>
<path d="M7.71428 12C9.13444 12 10.2857 10.8487 10.2857 9.42854C10.2857 8.00838 9.13444 6.85711 7.71428 6.85711C6.29412 6.85711 5.14285 8.00838 5.14285 9.42854C5.14285 10.8487 6.29412 12 7.71428 12Z" fill="#0B1726"/>
</g>
</svg>
