<svg width="24" height="24" viewBox="0 0 24 24" fill="none" xmlns="http://www.w3.org/2000/svg">
<g opacity="0.7">
<path d="M15.9082 12.123L23.9992 17.238V6.79199L15.9082 12.123Z" fill="#0B1726"/>
<path d="M0 6.79199V17.238L8.091 12.123L0 6.79199Z" fill="#0B1726"/>
<path d="M22.4999 3.75H1.49992C0.751421 3.75 0.157422 4.308 0.0449219 5.0265L11.9999 12.903L23.9549 5.0265C23.8424 4.308 23.2484 3.75 22.4999 3.75Z" fill="#0B1726"/>
<path d="M14.5358 13.029L12.4133 14.427C12.2873 14.5095 12.1448 14.55 12.0008 14.55C11.8568 14.55 11.7143 14.5095 11.5883 14.427L9.46583 13.0275L0.0488281 18.984C0.164328 19.6965 0.755328 20.25 1.50083 20.25H22.5008C23.2463 20.25 23.8373 19.6965 23.9528 18.984L14.5358 13.029Z" fill="#0B1726"/>
</g>
</svg>
