<svg width="24" height="24" viewBox="0 0 24 24" fill="none" xmlns="http://www.w3.org/2000/svg">
<g opacity="0.7">
<path d="M19.68 12.3953C19.68 11.9153 19.3129 11.5482 18.8329 11.5482C18.3529 11.5482 17.9859 11.9153 17.9859 12.3953C17.9859 15.6988 15.3035 18.3812 12 18.3812C8.69647 18.3812 6.01412 15.6988 6.01412 12.3953C6.01412 11.9153 5.64706 11.5482 5.16706 11.5482C4.68706 11.5482 4.32 11.9153 4.32 12.3953C4.32 16.32 7.25647 19.6235 11.1529 20.0471V22.3059H8.07529C7.59529 22.3059 7.22824 22.6729 7.22824 23.1529C7.22824 23.6329 7.59529 24 8.07529 24H15.9247C16.4047 24 16.7718 23.6329 16.7718 23.1529C16.7718 22.6729 16.4047 22.3059 15.9247 22.3059H12.8471V20.0471C16.7435 19.6235 19.68 16.32 19.68 12.3953Z" fill="#0B1726"/>
<path d="M12 0C9.40235 0 7.28471 2.11765 7.28471 4.71529V12.3671C7.28471 14.9929 9.40235 17.0824 12 17.1106C14.5976 17.1106 16.7153 14.9929 16.7153 12.3953V4.71529C16.7153 2.11765 14.5976 0 12 0Z" fill="#0B1726"/>
</g>
</svg>
