<svg width="96" height="96" viewBox="0 0 96 96" fill="none" xmlns="http://www.w3.org/2000/svg">
<path d="M67.4627 80.4937L48 74.8687L28.5373 80.4937C28.3688 80.8312 28.3125 81.1687 28.3125 81.5625V93.1875H67.6875V81.5625C67.6875 81.1687 67.6312 80.8312 67.4627 80.4937Z" fill="#646D73"/>
<path d="M67.6875 93.1875V81.5625C67.6875 81.1687 67.6312 80.8312 67.4627 80.4937L48 74.8687V93.1875H67.6875Z" fill="#474F54"/>
<path d="M93.1875 5.625H78.8166C78.8413 4.67494 78.9375 3.78 78.9375 2.8125C78.9375 1.23731 77.7002 0 76.125 0H19.875C18.2998 0 17.0625 1.23731 17.0625 2.8125C17.0625 3.78 17.1587 4.67494 17.1831 5.625H2.8125C1.25794 5.625 0 6.88294 0 8.4375V15.5621C0 31.266 12.5797 44.0229 28.0824 44.8442C31.3121 49.2909 35.1452 52.5909 39.5062 54.45C38.8312 68.1187 31.0125 77.625 29.1564 79.5939C28.875 79.8187 28.65 80.1562 28.5375 80.4937H67.4627C67.35 80.1562 67.1252 79.8187 66.8438 79.5939C64.9313 77.625 57.1687 68.175 56.4937 54.45C60.8557 52.5906 64.7119 49.2898 67.9442 44.8414C83.4336 44.0068 96 31.2572 96 15.5621V8.4375C96 6.88294 94.7421 5.625 93.1875 5.625ZM5.625 15.5621V11.25H17.4244C18.1543 20.5459 20.1701 30.3911 24.4069 38.7577C13.7869 36.3662 5.625 26.8956 5.625 15.5621ZM90.375 15.5621C90.375 26.8897 82.2204 36.3559 71.6083 38.7529C75.8115 30.3864 77.8386 20.6364 78.5756 11.25H90.375V15.5621Z" fill="#FED843"/>
<path d="M93.1875 5.625H78.8166C78.8413 4.67494 78.9375 3.78 78.9375 2.8125C78.9375 1.23731 77.7002 0 76.125 0H48V80.4937H67.4627C67.35 80.1562 67.1252 79.8187 66.8438 79.5939C64.9312 77.625 57.1687 68.175 56.4937 54.45C60.8557 52.5906 64.7119 49.2898 67.9442 44.8414C83.4336 44.0068 96 31.2572 96 15.5621V8.4375C96 6.88294 94.7421 5.625 93.1875 5.625ZM90.375 15.5621C90.375 26.8897 82.2204 36.3559 71.6083 38.7529C75.8119 30.3864 77.8389 20.6364 78.5756 11.25H90.375V15.5621Z" fill="#FABE2C"/>
<path d="M52.4879 35.7743L47.9999 33.4423L43.5119 35.7743C42.5725 36.2576 41.4245 36.1779 40.5622 35.5545C39.6997 34.9283 39.2658 33.8681 39.4415 32.8189L40.2655 27.8228L36.6676 24.2715C35.8844 23.508 35.645 22.3761 35.9645 21.3986C36.2941 20.3878 37.1675 19.6463 38.2222 19.4871L43.2209 18.7344L45.484 14.2108C46.4399 12.3047 49.5599 12.3047 50.5158 14.2108L52.7789 18.7344L57.7777 19.4871C58.8324 19.6464 59.7057 20.388 60.0354 21.3986C60.365 22.4121 60.0957 23.5245 59.3322 24.2715L55.7343 27.8228L56.5584 32.8189C56.7342 33.8681 56.3002 34.9283 55.4377 35.5545C54.581 36.1753 53.435 36.267 52.4879 35.7743Z" fill="#FABE2C"/>
<path d="M52.488 35.7743C53.4352 36.267 54.5812 36.1753 55.4377 35.5545C56.3002 34.9283 56.7341 33.8681 56.5584 32.8189L55.7344 27.8228L59.3323 24.2715C60.0958 23.5245 60.3651 22.4121 60.0354 21.3986C59.7058 20.3878 58.8324 19.6463 57.7777 19.4871L52.779 18.7344L50.5159 14.2108C50.0379 13.2578 49.0191 12.7811 48 12.7811V33.4423L52.488 35.7743Z" fill="#FF9100"/>
<path d="M70.5 96H25.5C23.9454 96 22.6875 94.7421 22.6875 93.1875C22.6875 91.6329 23.9454 90.375 25.5 90.375H70.5C72.0546 90.375 73.3125 91.6329 73.3125 93.1875C73.3125 94.7421 72.0546 96 70.5 96Z" fill="#474F54"/>
<path d="M70.5 90.375H48V96H70.5C72.0546 96 73.3125 94.7421 73.3125 93.1875C73.3125 91.6329 72.0546 90.375 70.5 90.375Z" fill="#32393F"/>
</svg>
